<svg width="24" height="24" viewBox="0 0 24 24" fill="none" xmlns="http://www.w3.org/2000/svg">
<path d="M10.3484 5C10.3484 6.86672 8.8351 8.38 6.96838 8.38C5.10166 8.38 3.58838 6.86672 3.58838 5C3.58838 3.13327 5.10166 1.62 6.96838 1.62C8.8351 1.62 10.3484 3.13327 10.3484 5Z" fill="#102B32"/>
<path d="M18.8887 9.50002L22.0187 16.82C22.5487 18.05 22.4287 19.46 21.6687 20.58C20.9287 21.7 19.6787 22.37 18.3387 22.37H5.57867C4.18867 22.37 2.91867 21.66 2.18867 20.48C1.45867 19.3 1.39867 17.85 2.01867 16.6L3.74867 13.15C4.25867 12.14 5.02867 11.52 5.92867 11.43C6.82867 11.34 7.70867 11.77 8.41867 12.66L8.63867 12.94C9.14867 13.59 9.77867 13.92 10.4087 13.86C11.0287 13.81 11.5987 13.38 11.9987 12.66L13.8987 9.25002C14.6087 7.97002 15.5387 7.30002 16.4987 7.35002C17.4687 7.40002 18.3187 8.16002 18.8887 9.50002Z" fill="#102B32"/>
</svg>
