<svg width="24" height="25" viewBox="0 0 24 25" fill="none" xmlns="http://www.w3.org/2000/svg">
<path d="M5.73937 16.1589C5.84937 15.6689 5.64937 14.9689 5.29937 14.6189L2.86937 12.1889C2.10937 11.4289 1.80937 10.6189 2.02937 9.91894C2.25937 9.21894 2.96937 8.73893 4.02937 8.55894L7.14937 8.03894C7.59937 7.95894 8.14937 7.55894 8.35937 7.14894L10.0794 3.69894C10.5794 2.70894 11.2594 2.15894 11.9994 2.15894C12.7394 2.15894 13.4194 2.70894 13.9194 3.69894L15.6394 7.14894C15.7694 7.40894 16.0394 7.65894 16.3294 7.82894L5.55937 18.5989C5.41937 18.7389 5.17937 18.6089 5.21937 18.4089L5.73937 16.1589Z" fill="#102B32"/>
<path d="M18.6992 14.619C18.3392 14.979 18.1392 15.669 18.2592 16.159L18.9492 19.169C19.2392 20.419 19.0592 21.359 18.4392 21.809C18.1892 21.989 17.8892 22.079 17.5392 22.079C17.0292 22.079 16.4292 21.889 15.7692 21.499L12.8392 19.759C12.3792 19.489 11.6192 19.489 11.1592 19.759L8.22917 21.499C7.11917 22.149 6.16918 22.259 5.55918 21.809C5.32917 21.639 5.15918 21.409 5.04918 21.109L17.2092 8.94896C17.6692 8.48896 18.3192 8.27895 18.9492 8.38895L19.9592 8.55895C21.0192 8.73895 21.7292 9.21896 21.9592 9.91896C22.1792 10.619 21.8792 11.429 21.1192 12.189L18.6992 14.619Z" fill="#102B32"/>
</svg>
