<svg width="24" height="25" viewBox="0 0 24 25" fill="none" xmlns="http://www.w3.org/2000/svg">
<path d="M20.3605 12.8889C19.9905 12.8889 19.6805 12.6089 19.6405 12.2389C19.4005 10.0389 18.2205 8.05895 16.4005 6.79895C16.0705 6.56895 15.9905 6.11895 16.2205 5.78895C16.4505 5.45895 16.9005 5.37895 17.2305 5.60895C19.4005 7.11895 20.8005 9.47895 21.0905 12.0889C21.1305 12.4889 20.8405 12.8489 20.4405 12.8889C20.4105 12.8889 20.3905 12.8889 20.3605 12.8889Z" fill="#F99D12"/>
<path d="M3.74047 12.9389C3.72047 12.9389 3.69047 12.9389 3.67047 12.9389C3.27047 12.8989 2.98047 12.5389 3.02047 12.1389C3.29047 9.52894 4.67047 7.16894 6.82047 5.64894C7.14047 5.41894 7.60047 5.49894 7.83047 5.81894C8.06047 6.14894 7.98047 6.59895 7.66047 6.82895C5.86047 8.10894 4.69047 10.0889 4.47047 12.2789C4.43047 12.6589 4.11047 12.9389 3.74047 12.9389Z" fill="#F99D12"/>
<path d="M15.9905 21.2589C14.7605 21.8489 13.4405 22.1489 12.0605 22.1489C10.6205 22.1489 9.25047 21.8289 7.97047 21.1789C7.61047 21.0089 7.47047 20.5689 7.65047 20.2089C7.82047 19.8489 8.26047 19.7089 8.62047 19.8789C9.25047 20.1989 9.92047 20.4189 10.6005 20.5489C11.5205 20.7289 12.4605 20.7389 13.3805 20.5789C14.0605 20.4589 14.7305 20.2489 15.3505 19.9489C15.7205 19.7789 16.1605 19.9189 16.3205 20.2889C16.5005 20.6489 16.3605 21.0889 15.9905 21.2589Z" fill="#F99D12"/>
<path d="M12.0505 2.16895C10.5005 2.16895 9.23047 3.42895 9.23047 4.98895C9.23047 6.54895 10.4905 7.80895 12.0505 7.80895C13.6105 7.80895 14.8705 6.54895 14.8705 4.98895C14.8705 3.42895 13.6105 2.16895 12.0505 2.16895Z" fill="#F99D12"/>
<path d="M5.05047 14.0289C3.50047 14.0289 2.23047 15.2889 2.23047 16.8489C2.23047 18.4089 3.49047 19.6689 5.05047 19.6689C6.61047 19.6689 7.87047 18.4089 7.87047 16.8489C7.87047 15.2889 6.60047 14.0289 5.05047 14.0289Z" fill="#F99D12"/>
<path d="M18.9505 14.0289C17.4005 14.0289 16.1305 15.2889 16.1305 16.8489C16.1305 18.4089 17.3905 19.6689 18.9505 19.6689C20.5105 19.6689 21.7705 18.4089 21.7705 16.8489C21.7705 15.2889 20.5105 14.0289 18.9505 14.0289Z" fill="#F99D12"/>
</svg>
