<svg width="24" height="25" viewBox="0 0 24 25" fill="none" xmlns="http://www.w3.org/2000/svg">
<path d="M16.7502 2.5V4.06C19.4502 4.31 20.7602 5.92 20.9602 8.31C20.9902 8.59 20.7502 8.84 20.4602 8.84H3.54023C3.26023 8.84 3.02023 8.6 3.04023 8.31C3.24023 5.92 4.55023 4.31 7.25023 4.06V2.5C7.25023 2.09 7.59023 1.75 8.00023 1.75C8.41023 1.75 8.75023 2.09 8.75023 2.5V4H15.2502V2.5C15.2502 2.09 15.5902 1.75 16.0002 1.75C16.4102 1.75 16.7502 2.09 16.7502 2.5Z" fill="#102B32"/>
<path fill-rule="evenodd" clip-rule="evenodd" d="M4 10.34H20C20.55 10.34 21 10.79 21 11.34V17.5C21 20.5 19.5 22.5 16 22.5H8C4.5 22.5 3 20.5 3 17.5V11.34C3 10.79 3.45 10.34 4 10.34ZM8.88 18.92C9 18.87 9.11 18.8 9.21 18.71C9.39 18.52 9.5 18.26 9.5 18C9.5 17.74 9.39 17.48 9.21 17.29C9.11 17.2 9 17.13 8.88 17.08C8.64 16.98 8.36 16.98 8.12 17.08C8 17.13 7.89 17.2 7.79 17.29C7.61 17.48 7.5 17.74 7.5 18C7.5 18.26 7.61 18.52 7.79 18.71C7.89 18.8 8 18.87 8.12 18.92C8.24 18.97 8.37 19 8.5 19C8.63 19 8.76 18.97 8.88 18.92ZM9.21 15.21C9.3 15.11 9.37 15 9.42 14.88C9.47 14.76 9.5 14.63 9.5 14.5C9.5 14.37 9.47 14.24 9.42 14.12C9.37 14 9.3 13.89 9.21 13.79C9.11 13.7 9 13.63 8.88 13.58C8.64 13.48 8.36 13.48 8.12 13.58C8 13.63 7.89 13.7 7.79 13.79C7.7 13.89 7.63 14 7.58 14.12C7.53 14.24 7.5 14.37 7.5 14.5C7.5 14.63 7.53 14.76 7.58 14.88C7.63 15 7.7 15.11 7.79 15.21C7.89 15.3 8 15.37 8.12 15.42C8.24 15.47 8.37 15.5 8.5 15.5C8.63 15.5 8.76 15.47 8.88 15.42C9 15.37 9.11 15.3 9.21 15.21ZM12.38 15.42C12.5 15.37 12.61 15.3 12.71 15.21C12.89 15.02 13 14.76 13 14.5C13 14.24 12.89 13.98 12.71 13.79C12.61 13.7 12.5 13.63 12.38 13.58C12.14 13.47 11.86 13.47 11.62 13.58C11.5 13.63 11.39 13.7 11.29 13.79C11.11 13.98 11 14.24 11 14.5C11 14.76 11.11 15.02 11.29 15.21C11.39 15.3 11.5 15.37 11.62 15.42C11.74 15.47 11.87 15.5 12 15.5C12.13 15.5 12.26 15.47 12.38 15.42Z" fill="#102B32"/>
</svg>
