<svg width="24" height="25" viewBox="0 0 24 25" fill="none" xmlns="http://www.w3.org/2000/svg">
<path d="M20.163 9.17502C19.1692 4.848 15.3549 2.8999 12.0043 2.8999C12.0043 2.8999 12.0043 2.8999 11.9949 2.8999C8.6538 2.8999 4.83001 4.83863 3.83621 9.16566C2.72883 13.9984 5.71971 18.0913 8.42664 20.6669C9.42991 21.6222 10.7171 22.0999 12.0043 22.0999C13.2916 22.0999 14.5788 21.6222 15.5726 20.6669C18.2795 18.0913 21.2704 14.0078 20.163 9.17502ZM12.0043 13.8673C10.3575 13.8673 9.02293 12.5467 9.02293 10.9171C9.02293 9.28742 10.3575 7.96683 12.0043 7.96683C13.6512 7.96683 14.9858 9.28742 14.9858 10.9171C14.9858 12.5467 13.6512 13.8673 12.0043 13.8673Z" fill="#102B32"/>
</svg>
