<svg width="24" height="25" viewBox="0 0 24 25" fill="none" xmlns="http://www.w3.org/2000/svg">
<path d="M16 2.15894H8C4 2.15894 2 4.15894 2 8.15894V21.1589C2 21.7089 2.45 22.1589 3 22.1589H16C20 22.1589 22 20.1589 22 16.1589V8.15894C22 4.15894 20 2.15894 16 2.15894ZM11.11 16.8189C10.86 17.0689 10.4 17.2989 10.06 17.3489L7.98 17.6389C7.9 17.6489 7.82 17.6589 7.75 17.6589C7.4 17.6589 7.08 17.5389 6.85 17.3089C6.57 17.0289 6.45 16.6189 6.52 16.1789L6.81 14.0989C6.86 13.7589 7.09 13.2889 7.34 13.0489L11.11 9.27894C11.17 9.45894 11.25 9.63894 11.34 9.83894C11.43 10.0189 11.52 10.1989 11.62 10.3689C11.7 10.5089 11.79 10.6489 11.87 10.7489C11.97 10.8989 12.07 11.0289 12.14 11.0989C12.18 11.1589 12.22 11.1989 12.23 11.2189C12.45 11.4689 12.68 11.7089 12.9 11.8889C12.96 11.9489 13 11.9789 13.01 11.9889C13.14 12.0889 13.26 12.1989 13.38 12.2689C13.51 12.3689 13.65 12.4589 13.79 12.5389C13.96 12.6389 14.14 12.7389 14.33 12.8289C14.52 12.9189 14.7 12.9889 14.88 13.0489L11.11 16.8189ZM16.55 11.3889L15.77 12.1689C15.72 12.2189 15.65 12.2489 15.58 12.2489C15.56 12.2489 15.52 12.2489 15.5 12.2389C13.78 11.7489 12.41 10.3789 11.92 8.65894C11.89 8.56894 11.92 8.46894 11.99 8.39894L12.78 7.60894C14.07 6.31894 15.29 6.34894 16.55 7.60894C17.19 8.24894 17.51 8.86894 17.5 9.50894C17.5 10.1389 17.19 10.7489 16.55 11.3889Z" fill="#102B32"/>
</svg>
