<svg width="24" height="25" viewBox="0 0 24 25" fill="none" xmlns="http://www.w3.org/2000/svg">
<path d="M21.0697 5.38894C19.4597 5.22894 17.8497 5.10894 16.2297 5.01894V5.00894L16.0097 3.70894C15.8597 2.78894 15.6397 1.40894 13.2997 1.40894H10.6797C8.34967 1.40894 8.12967 2.72894 7.96967 3.69894L7.75967 4.97894C6.82967 5.03894 5.89967 5.09894 4.96967 5.18894L2.92967 5.38894C2.50967 5.42894 2.20967 5.79894 2.24967 6.20894C2.28967 6.61894 2.64967 6.91894 3.06967 6.87894L5.10967 6.67894C10.3497 6.15894 15.6297 6.35894 20.9297 6.88894C20.9597 6.88894 20.9797 6.88894 21.0097 6.88894C21.3897 6.88894 21.7197 6.59894 21.7597 6.20894C21.7897 5.79894 21.4897 5.42894 21.0697 5.38894Z" fill="#102B32"/>
<path d="M19.2297 8.29894C18.9897 8.04894 18.6597 7.90894 18.3197 7.90894H5.67975C5.33975 7.90894 4.99975 8.04894 4.76975 8.29894C4.53975 8.54894 4.40975 8.88894 4.42975 9.23894L5.04975 19.4989C5.15975 21.0189 5.29975 22.9189 8.78975 22.9189H15.2097C18.6997 22.9189 18.8398 21.0289 18.9497 19.4989L19.5697 9.24894C19.5897 8.88894 19.4597 8.54894 19.2297 8.29894ZM13.6597 17.9089H10.3297C9.91975 17.9089 9.57975 17.5689 9.57975 17.1589C9.57975 16.7489 9.91975 16.4089 10.3297 16.4089H13.6597C14.0697 16.4089 14.4097 16.7489 14.4097 17.1589C14.4097 17.5689 14.0697 17.9089 13.6597 17.9089ZM14.4997 13.9089H9.49975C9.08975 13.9089 8.74975 13.5689 8.74975 13.1589C8.74975 12.7489 9.08975 12.4089 9.49975 12.4089H14.4997C14.9097 12.4089 15.2497 12.7489 15.2497 13.1589C15.2497 13.5689 14.9097 13.9089 14.4997 13.9089Z" fill="#102B32"/>
</svg>
