<svg width="20" height="20" viewBox="0 0 20 20" fill="none" xmlns="http://www.w3.org/2000/svg">
<path d="M9.25125 16.25H7.00125C5.90125 16.25 5.00125 17.15 5.00125 18.25V18.5H4.00125C3.59125 18.5 3.25125 18.84 3.25125 19.25C3.25125 19.66 3.59125 20 4.00125 20H16.0013C16.4113 20 16.7512 19.66 16.7512 19.25C16.7512 18.84 16.4113 18.5 16.0013 18.5H15.0013V18.25C15.0013 17.15 14.1013 16.25 13.0013 16.25H10.7513V13.96C10.5013 13.99 10.2513 14 10.0013 14C9.75125 14 9.50125 13.99 9.25125 13.96V16.25Z" fill="#102B32"/>
<path d="M16.4812 9.64C17.1412 9.39 17.7213 8.98 18.1812 8.52C19.1112 7.49 19.7212 6.26 19.7212 4.82C19.7212 3.38 18.5912 2.25 17.1512 2.25H16.5912C15.9412 0.92 14.5813 0 13.0013 0H7.00125C5.42125 0 4.06125 0.92 3.41125 2.25H2.85125C1.41125 2.25 0.28125 3.38 0.28125 4.82C0.28125 6.26 0.89125 7.49 1.82125 8.52C2.28125 8.98 2.86125 9.39 3.52125 9.64C4.56125 12.2 7.06125 14 10.0013 14C12.9412 14 15.4412 12.2 16.4812 9.64ZM12.8413 6.45L12.2213 7.21C12.1213 7.32 12.0513 7.54 12.0613 7.69L12.1213 8.67C12.1613 9.27 11.7313 9.58 11.1713 9.36L10.2613 9C10.1213 8.95 9.88125 8.95 9.74125 9L8.83125 9.36C8.27125 9.58 7.84125 9.27 7.88125 8.67L7.94125 7.69C7.95125 7.54 7.88125 7.32 7.78125 7.21L7.16125 6.45C6.77125 5.99 6.94125 5.48 7.52125 5.33L8.47125 5.09C8.62125 5.05 8.80125 4.91 8.88125 4.78L9.41125 3.96C9.74125 3.45 10.2613 3.45 10.5913 3.96L11.1213 4.78C11.2013 4.91 11.3813 5.05 11.5312 5.09L12.4812 5.33C13.0612 5.48 13.2313 5.99 12.8413 6.45Z" fill="#102B32"/>
</svg>
