<svg width="20" height="21" viewBox="0 0 20 21" fill="none" xmlns="http://www.w3.org/2000/svg">
<path d="M14.65 4.22H5.35C2.4 4.22 0 6.62 0 9.57V15.15C0 18.1 2.4 20.5 5.35 20.5H14.65C17.6 20.5 20 18.1 20 15.15V9.57C20 6.62 17.6 4.22 14.65 4.22ZM12.5 10.52C12.5 9.97 12.95 9.52 13.5 9.52C14.05 9.52 14.5 9.97 14.5 10.52C14.5 11.07 14.05 11.53 13.5 11.53C12.95 11.53 12.5 11.09 12.5 10.54V10.52ZM8.13 14.57C7.98 14.72 7.79 14.79 7.6 14.79C7.41 14.79 7.22 14.72 7.07 14.57L6.04 13.54L5.05 14.53C4.9 14.68 4.71 14.75 4.52 14.75C4.33 14.75 4.14 14.68 3.99 14.53C3.7 14.24 3.7 13.76 3.99 13.47L4.98 12.48L4.02 11.52C3.73 11.23 3.73 10.75 4.02 10.46C4.31 10.17 4.79 10.17 5.08 10.46L6.04 11.42L7.03 10.43C7.32 10.14 7.8 10.14 8.09 10.43C8.38 10.72 8.38 11.2 8.09 11.49L7.1 12.48L8.13 13.51C8.42 13.8 8.42 14.28 8.13 14.57ZM11.54 13.5C10.99 13.5 10.53 13.05 10.53 12.5C10.53 11.95 10.97 11.5 11.52 11.5H11.54C12.09 11.5 12.54 11.95 12.54 12.5C12.54 13.05 12.1 13.5 11.54 13.5ZM13.5 15.47C12.95 15.47 12.5 15.03 12.5 14.48V14.46C12.5 13.91 12.95 13.46 13.5 13.46C14.05 13.46 14.5 13.91 14.5 14.46C14.5 15.01 14.06 15.47 13.5 15.47ZM15.48 13.5C14.93 13.5 14.47 13.05 14.47 12.5C14.47 11.95 14.91 11.5 15.46 11.5H15.48C16.03 11.5 16.48 11.95 16.48 12.5C16.48 13.05 16.04 13.5 15.48 13.5Z" fill="#102B32"/>
<path d="M11.64 1.21L11.63 2.15C11.62 3.03 10.89 3.76 10 3.76C9.85 3.76 9.76 3.86 9.76 3.99C9.76 4.12 9.86 4.22 9.99 4.22H8.38C8.37 4.15 8.36 4.07 8.36 3.99C8.36 3.09 9.09 2.36 9.98 2.36C10.13 2.36 10.23 2.26 10.23 2.13L10.24 1.19C10.25 0.81 10.56 0.5 10.94 0.5H10.95C11.34 0.5 11.64 0.82 11.64 1.21Z" fill="#102B32"/>
</svg>
