<svg width="24" height="24" viewBox="0 0 24 24" fill="none" xmlns="http://www.w3.org/2000/svg">
<path d="M15.5909 1.75C12.6209 1.75 10.2109 4.16 10.2109 7.13C10.2109 10.1 12.6209 12.51 15.5909 12.51C18.5609 12.51 20.9709 10.1 20.9709 7.13C20.9709 4.16 18.5609 1.75 15.5909 1.75Z" fill="#F99D12"/>
<path d="M6.36125 13.03C4.53125 13.03 3.03125 14.52 3.03125 16.36C3.03125 18.2 4.52125 19.69 6.36125 19.69C8.19125 19.69 9.69125 18.2 9.69125 16.36C9.69125 14.52 8.19125 13.03 6.36125 13.03Z" fill="#F99D12"/>
<path d="M16.6225 16.62C15.0725 16.62 13.8125 17.88 13.8125 19.43C13.8125 20.98 15.0725 22.24 16.6225 22.24C18.1725 22.24 19.4325 20.98 19.4325 19.43C19.4325 17.88 18.1725 16.62 16.6225 16.62Z" fill="#F99D12"/>
</svg>
