<svg width="20" height="20" viewBox="0 0 20 20" fill="none" xmlns="http://www.w3.org/2000/svg">
<path d="M9.24773 1.9001V10.9201C9.24773 11.2501 9.08773 11.5501 8.81773 11.7401L1.60773 16.7901C1.01773 17.2001 0.177733 16.8801 0.0477333 16.1701C-0.102267 15.3101 0.0977333 14.3001 0.697733 13.2101L6.75773 2.3101C6.98773 1.9001 7.23773 1.5401 7.49773 1.2301C8.09773 0.5301 9.24773 0.9801 9.24773 1.9001Z" fill="#F99D12"/>
<path d="M18.3877 16.7901L11.1777 11.7401C10.9077 11.5501 10.7477 11.2501 10.7477 10.9201V1.9001C10.7477 0.9801 11.8977 0.5301 12.4977 1.2301C12.7577 1.5401 13.0077 1.9001 13.2377 2.3101L19.2977 13.2101C19.8977 14.3001 20.0977 15.3101 19.9477 16.1701C19.8177 16.8801 18.9777 17.2001 18.3877 16.7901Z" fill="#F99D12"/>
<path d="M3.25773 17.1401L9.40773 13.0401C9.73773 12.8201 10.2777 12.8201 10.6077 13.0401L16.7577 17.1401C18.3877 18.2301 18.1177 19.1201 16.1577 19.1201H3.84773C1.89773 19.1101 1.62773 18.2201 3.25773 17.1401Z" fill="#F99D12"/>
</svg>
