<svg width="24" height="25" viewBox="0 0 24 25" fill="none" xmlns="http://www.w3.org/2000/svg">
<path d="M6.6499 4.19753C6.28955 4.55751 6.27979 5.12752 6.61963 5.49751H5C3.47021 5.49751 3 6.39754 3 7.49751V8.49751C3 9.59749 3.47021 10.4975 5 10.4975H20C21.4702 10.4975 22 9.59749 22 8.49751V7.49751C22 6.39754 21.4702 5.49751 20 5.49751H18.3701C18.71 5.12752 18.7002 4.55751 18.3403 4.19753L16.9199 2.77754C16.5503 2.40749 15.9399 2.40749 15.5703 2.77754L12.8501 5.49751H12.1396L9.41992 2.77754C9.0498 2.40749 8.43994 2.40749 8.06982 2.77754L6.6499 4.19753Z" fill="#F99D12"/>
<path d="M20.5 12.4975V18.4975C20.5 20.7075 18.71 22.4975 16.5 22.4975H8.5C6.29004 22.4975 4.5 20.7075 4.5 18.4975V12.4975C4.5 11.9475 4.9502 11.4975 5.5 11.4975H7.47021C8.02002 11.4975 8.47021 11.9475 8.47021 12.4975V15.6375C8.47021 16.3775 8.87988 17.0575 9.52979 17.4075C9.60547 17.4492 9.68311 17.4854 9.76221 17.5162L9.84521 17.5463L9.92627 17.5717C10.1021 17.6223 10.2847 17.6475 10.4702 17.6475C10.8501 17.6475 11.23 17.5375 11.5601 17.3175L12.5098 16.6975L13.3901 17.2875C14 17.6975 14.7798 17.7475 15.4302 17.3975C16.0898 17.0475 16.5 16.3775 16.5 15.6275V12.4975C16.5 11.9475 16.9502 11.4975 17.5 11.4975H19.5C20.0498 11.4975 20.5 11.9475 20.5 12.4975Z" fill="#F99D12"/>
<path d="M15.4697 12.4975C15.4697 11.9475 15.02 11.4975 14.4697 11.4975H10.4399C9.89014 11.4975 9.43994 11.9475 9.43994 12.4975V15.6475C9.43994 16.4375 10.3198 16.9175 10.98 16.4775L11.9199 15.8575C12.2598 15.6375 12.6899 15.6375 13.02 15.8575L13.9199 16.4575C14.5801 16.9075 15.4697 16.4275 15.4697 15.6275V12.4975Z" fill="#F99D12"/>
</svg>
