<svg width="24" height="24" viewBox="0 0 24 24" fill="none" xmlns="http://www.w3.org/2000/svg">
<path d="M19.1085 4.96009C15.1985 1.05009 8.8485 1.05009 4.9385 4.96009C0.958501 8.94009 1.0285 15.4301 5.1385 19.3301C8.9385 22.9201 15.0985 22.9201 18.8985 19.3301C23.0185 15.4301 23.0885 8.94009 19.1085 4.96009ZM16.3785 16.6501C15.1785 17.7901 13.5985 18.3601 12.0185 18.3601C10.4385 18.3601 8.8585 17.7901 7.6585 16.6501C7.3585 16.3601 7.3485 15.8901 7.6285 15.5901C7.9185 15.2901 8.3885 15.2801 8.6885 15.5601C10.5185 17.2901 13.5085 17.3001 15.3485 15.5601C15.6485 15.2801 16.1285 15.2901 16.4085 15.5901C16.6985 15.8901 16.6785 16.3601 16.3785 16.6501Z" fill="#102B32"/>
</svg>
