<svg width="24" height="24" viewBox="0 0 24 24" fill="none" xmlns="http://www.w3.org/2000/svg">
<path d="M7.88219 12.07C7.88219 11.66 8.22219 11.32 8.63219 11.32H14.1122V2.86C14.1022 2.38 13.7222 2 13.2422 2C7.35219 2 3.24219 6.11 3.24219 12C3.24219 17.89 7.35219 22 13.2422 22C13.7122 22 14.1022 21.62 14.1022 21.14V12.81H8.63219C8.21219 12.82 7.88219 12.48 7.88219 12.07Z" fill="#DE9151"/>
<path d="M20.5422 11.54L17.7022 8.69C17.4122 8.4 16.9322 8.4 16.6422 8.69C16.3522 8.98 16.3522 9.46 16.6422 9.75L18.2022 11.31H14.1022V12.81L18.1922 12.81L16.6322 14.37C16.3422 14.66 16.3422 15.14 16.6322 15.43C16.7822 15.58 16.9722 15.65 17.1622 15.65C17.3522 15.65 17.5422 15.58 17.6922 15.43L20.5322 12.58C20.8322 12.3 20.8322 11.83 20.5422 11.54Z" fill="#DE9151"/>
</svg>
