<svg width="24" height="25" viewBox="0 0 24 25" fill="none" xmlns="http://www.w3.org/2000/svg">
<path d="M5.74132 16.5C5.85132 16.01 5.65132 15.31 5.30132 14.96L2.87132 12.53C2.11132 11.77 1.81132 10.96 2.03132 10.26C2.26132 9.56 2.97132 9.08 4.03132 8.9L7.15132 8.38C7.60132 8.3 8.15132 7.9 8.36132 7.49L10.0813 4.04C10.5813 3.05 11.2613 2.5 12.0013 2.5C12.7413 2.5 13.4213 3.05 13.9213 4.04L15.6413 7.49C15.7713 7.75 16.0413 8 16.3313 8.17L5.56132 18.94C5.42132 19.08 5.18132 18.95 5.22132 18.75L5.74132 16.5Z" fill="#F99D12"/>
<path d="M18.7011 14.96C18.3411 15.32 18.1411 16.01 18.2611 16.5L18.9511 19.51C19.2411 20.76 19.0611 21.7 18.4411 22.15C18.1911 22.33 17.8911 22.42 17.5411 22.42C17.0311 22.42 16.4311 22.23 15.7711 21.84L12.8411 20.1C12.3811 19.83 11.6211 19.83 11.1611 20.1L8.23113 21.84C7.12113 22.49 6.17113 22.6 5.56113 22.15C5.33113 21.98 5.16113 21.75 5.05113 21.45L17.2111 9.29002C17.6711 8.83002 18.3211 8.62002 18.9511 8.73002L19.9611 8.90002C21.0211 9.08002 21.7311 9.56002 21.9611 10.26C22.1811 10.96 21.8811 11.77 21.1211 12.53L18.7011 14.96Z" fill="#F99D12"/>
</svg>
