<svg width="40" height="40" viewBox="0 0 40 40" fill="none" xmlns="http://www.w3.org/2000/svg">
<path fill-rule="evenodd" clip-rule="evenodd" d="M28.716 27.4068C23.9058 22.987 16.107 22.987 11.2968 27.4068L7.19192 31.1786C10.3082 34.7462 14.8909 37 20 37C25.2115 37 29.8753 34.655 32.9937 30.9625C32.8025 31.0107 32.5893 30.9658 32.439 30.8278L28.716 27.4068ZM15 30C15 31.1046 14.1046 32 13 32C11.8954 32 11 31.1046 11 30C11 28.8954 11.8954 28 13 28C14.1046 28 15 28.8954 15 30ZM29 30C29 31.1046 28.1046 32 27 32C25.8954 32 25 31.1046 25 30C25 28.8954 25.8954 28 27 28C28.1046 28 29 28.8954 29 30Z" fill="#102B32" fill-opacity="0.6"/>
<path fill-rule="evenodd" clip-rule="evenodd" d="M10.0871 26.2953L6.17279 29.892C4.17564 27.1054 3 23.69 3 20C3 15.4046 4.82335 11.2351 7.78606 8.17544L10.0871 10.2898C14.8973 14.7096 14.8973 21.8755 10.0871 26.2953ZM10 16C10 17.1046 9.10457 18 8 18C6.89543 18 6 17.1046 6 16C6 14.8954 6.89543 14 8 14C9.10457 14 10 14.8954 10 16Z" fill="#102B32" fill-opacity="0.6"/>
<path fill-rule="evenodd" clip-rule="evenodd" d="M20 3C15.797 3 11.9503 4.52523 8.98315 7.05239L11.2968 9.1783C16.107 13.5981 23.9058 13.5981 28.716 9.1783L31.0232 7.05778C28.0551 4.5274 24.2059 3 20 3ZM22 8C22 9.10457 21.1046 10 20 10C18.8954 10 18 9.10457 18 8C18 6.89543 18.8954 6 20 6C21.1046 6 22 6.89543 22 8Z" fill="#102B32" fill-opacity="0.6"/>
<path fill-rule="evenodd" clip-rule="evenodd" d="M29.9256 10.2898L32.2197 8.18137C35.179 11.2405 37 15.4076 37 20C37 23.7111 35.8109 27.1444 33.7929 29.9397C33.767 29.8579 33.7189 29.7808 33.6487 29.7163L29.9256 26.2953C25.1155 21.8755 25.1155 14.7096 29.9256 10.2898ZM34 16C34 17.1046 33.1046 18 32 18C30.8954 18 30 17.1046 30 16C30 14.8954 30.8954 14 32 14C33.1046 14 34 14.8954 34 16Z" fill="#102B32" fill-opacity="0.6"/>
</svg>
