<svg width="40" height="40" viewBox="0 0 40 40" fill="none" xmlns="http://www.w3.org/2000/svg">
<path fill-rule="evenodd" clip-rule="evenodd" d="M20.1153 33.9591C25.5327 33.9591 29.9244 29.5674 29.9244 24.15C29.9244 18.7325 25.5327 14.3408 20.1153 14.3408C14.6978 14.3408 10.3061 18.7325 10.3061 24.15C10.3061 29.5674 14.6978 33.9591 20.1153 33.9591ZM17.7913 27.3798C19.0486 26.124 21.087 26.124 22.3443 27.3798L23.3174 28.3518C23.3756 28.4099 23.47 28.4099 23.5282 28.3518L23.6336 28.2465C23.6918 28.1884 23.6918 28.0941 23.6336 28.036L22.6604 27.064C21.4032 25.8082 21.4032 23.7722 22.6604 22.5165L25.5113 19.6682C25.5696 19.61 25.5696 19.5158 25.5113 19.4576L25.406 19.3524C25.3477 19.2942 25.2534 19.2942 25.1952 19.3524L22.3443 22.2007C21.087 23.4564 19.0486 23.4564 17.7913 22.2007L16.8182 21.2287C16.76 21.1706 16.6657 21.1706 16.6075 21.2287L16.5021 21.334C16.4439 21.3921 16.4439 21.4864 16.5021 21.5445L17.4752 22.5165C18.7324 23.7722 18.7324 25.8082 17.4752 27.064L15.9278 28.6095C15.8696 28.6677 15.8696 28.7619 15.9278 28.8201L16.0332 28.9254C16.0914 28.9835 16.1858 28.9835 16.244 28.9254L17.7913 27.3798ZM20.811 20.63C20.811 21.0756 20.4498 21.4368 20.0042 21.4368C19.5586 21.4368 19.1974 21.0756 19.1974 20.63C19.1974 20.1844 19.5586 19.8232 20.0042 19.8232C20.4498 19.8232 20.811 20.1844 20.811 20.63ZM15.7981 25.643C16.2437 25.643 16.6049 25.2817 16.6049 24.8362C16.6049 24.3906 16.2437 24.0294 15.7981 24.0294C15.3525 24.0294 14.9913 24.3906 14.9913 24.8362C14.9913 25.2817 15.3525 25.643 15.7981 25.643ZM24.2103 25.643C24.6559 25.643 25.0171 25.2817 25.0171 24.8362C25.0171 24.3906 24.6559 24.0294 24.2103 24.0294C23.7647 24.0294 23.4035 24.3906 23.4035 24.8362C23.4035 25.2817 23.7647 25.643 24.2103 25.643Z" fill="#102B32" fill-opacity="0.6"/>
<path d="M26.4278 15.2126L26.9482 14.2722C28.9728 10.6138 26.4421 6.04077 22.3929 6.04077L17.8376 6.04077C13.7885 6.04077 11.2578 10.6138 13.2823 14.2722L13.8027 15.2126C15.5863 13.9506 17.7642 13.209 20.1153 13.209C22.4664 13.209 24.6443 13.9506 26.4278 15.2126Z" fill="#102B32" fill-opacity="0.6"/>
<path d="M27.3683 15.9149C27.5243 16.0527 27.6761 16.1936 27.824 16.3405C29.0348 15.5529 30.4751 15.0955 32.0204 15.0955C33.6934 15.0955 35.2431 15.6317 36.512 16.542L36.8823 15.8634C38.3229 13.2218 36.5222 9.91832 33.6411 9.91832H30.3997C29.7802 9.91832 29.2107 10.0713 28.7126 10.3379C28.9748 11.8071 28.7665 13.3884 27.966 14.8349L27.3683 15.9149Z" fill="#102B32" fill-opacity="0.6"/>
<path d="M28.3918 16.9449C29.4491 16.2905 30.6915 15.9134 32.0204 15.9134C35.875 15.9134 39 19.0851 39 22.9975C39 26.9099 35.875 30.0816 32.0204 30.0816C31.1739 30.0816 30.3626 29.9286 29.6119 29.6484C30.5504 28.0307 31.0878 26.1525 31.0878 24.1486C31.0878 21.3919 30.0708 18.8715 28.3918 16.9449Z" fill="#102B32" fill-opacity="0.6"/>
<path d="M11.4976 10.4591C10.9519 10.1183 10.3088 9.91832 9.60029 9.91832H6.3589C3.47781 9.91832 1.67706 13.2218 3.1177 15.8634L3.48803 16.542C4.75695 15.6317 6.30664 15.0955 7.97959 15.0955C9.58419 15.0955 11.0756 15.5892 12.3144 16.4329L12.4524 16.2966C12.5554 16.1936 12.6603 16.0951 12.7669 15.9997L12.8415 15.8634L12.2646 14.8349C11.486 13.4293 11.2677 11.8935 11.4976 10.4591Z" fill="#102B32" fill-opacity="0.6"/>
<path d="M11.757 17.0403C10.6681 16.3284 9.37138 15.9134 7.97959 15.9134C4.12495 15.9134 1 19.0851 1 22.9975C1 26.9099 4.12495 30.0816 7.97959 30.0816C8.89729 30.0816 9.77353 29.9029 10.5763 29.5757C9.66409 27.9747 9.14286 26.1222 9.14286 24.1486C9.14286 21.4359 10.1266 18.9548 11.757 17.0403Z" fill="#102B32" fill-opacity="0.6"/>
</svg>
