<svg width="40" height="40" viewBox="0 0 40 40" fill="none" xmlns="http://www.w3.org/2000/svg">
<path fill-rule="evenodd" clip-rule="evenodd" d="M20 11.5C20 15.9183 16.4183 19.5 12 19.5C7.58172 19.5 4 15.9183 4 11.5C4 7.08172 7.58172 3.5 12 3.5C16.4183 3.5 20 7.08172 20 11.5ZM13.8571 10.6429C13.3049 10.6429 12.8571 10.1951 12.8571 9.64286V7.5H11.1429V9.64286C11.1429 10.1951 10.6951 10.6429 10.1429 10.6429H8V12.3571H10.1429C10.6951 12.3571 11.1429 12.8049 11.1429 13.3571V15.5H12.8571V13.3571C12.8571 12.8049 13.3049 12.3571 13.8571 12.3571H16V10.6429H13.8571Z" fill="#102B32" fill-opacity="0.6"/>
<path fill-rule="evenodd" clip-rule="evenodd" d="M36 28.5C36 32.9183 32.4183 36.5 28 36.5C23.5817 36.5 20 32.9183 20 28.5C20 24.0817 23.5817 20.5 28 20.5C32.4183 20.5 36 24.0817 36 28.5ZM28.8571 27.6429V24.5H27.1429V27.6429H24V29.3571H27.1429V32.5H28.8571V29.3571H32V27.6429H28.8571Z" fill="#102B32" fill-opacity="0.6"/>
<path fill-rule="evenodd" clip-rule="evenodd" d="M32 11.5C34.2091 11.5 36 9.70914 36 7.5C36 5.29086 34.2091 3.5 32 3.5C29.7909 3.5 28 5.29086 28 7.5C28 9.70914 29.7909 11.5 32 11.5ZM32.4286 5.5V7.07143H34V7.92857H32.4286V9.5H31.5714V7.92857H30V7.07143H31.5714V5.5H32.4286Z" fill="#102B32" fill-opacity="0.6"/>
<path fill-rule="evenodd" clip-rule="evenodd" d="M12 32.5C12 34.7091 10.2091 36.5 8 36.5C5.79086 36.5 4 34.7091 4 32.5C4 30.2909 5.79086 28.5 8 28.5C10.2091 28.5 12 30.2909 12 32.5ZM8.42857 32.0714V30.5H7.57143V32.0714H6V32.9286H7.57143V34.5H8.42857V32.9286H10V32.0714H8.42857Z" fill="#102B32" fill-opacity="0.6"/>
</svg>
