<svg width="24" height="25" viewBox="0 0 24 25" fill="none" xmlns="http://www.w3.org/2000/svg">
<path fill-rule="evenodd" clip-rule="evenodd" d="M20.772 5.86592L12.3465 2.55517C12.1591 2.48161 11.8409 2.48161 11.6535 2.55517L3.22798 5.86592C2.90022 5.99466 2.6383 6.37172 2.6383 6.72119V11.7744C2.6383 12.2802 3.05976 12.6941 3.57447 12.6941H5.44681V16.4419H3.57447C2.67167 16.4419 1.93617 17.1646 1.93617 18.0513V20.1205H1.70213C1.31815 20.1205 1 20.4332 1 20.8103C1 21.1873 1.31815 21.5 1.70213 21.5H22.2979C22.6818 21.5 23 21.1873 23 20.8103C23 20.4332 22.6818 20.1205 22.2979 20.1205H22.0638V18.0513C22.0638 17.1646 21.3283 16.4419 20.4255 16.4419H18.5532V12.6941H20.4255C20.9402 12.6941 21.3617 12.2802 21.3617 11.7744V6.72119C21.3617 6.37172 21.0998 5.99466 20.772 5.86592ZM7.31915 16.4419V12.6941H9.19149V16.4419H7.31915ZM11.0638 16.4419V12.6941H12.9362V16.4419H11.0638ZM14.8085 16.4419V12.6941H16.6809V16.4419H14.8085ZM12.3349 5.55228H11.6651V5.92039C11.0272 6.0347 10.4917 6.43559 10.2163 6.99226C10.0727 7.27356 9.99072 7.57495 9.99072 7.89643C9.99072 8.21792 10.0727 8.51931 10.2163 8.80061C10.4917 9.35728 11.0272 9.75816 11.6651 9.87248V10.2406H12.3349V9.88809C12.7616 9.83586 13.1259 9.67 13.3942 9.42348C13.7837 9.0819 14.0093 8.55949 14.0093 7.93662C14.0093 7.77612 13.9888 7.65568 13.9684 7.53531L12.041 7.53476V8.2782H13.1686C13.1482 8.45903 13.0252 8.74033 12.7586 8.92116C12.5946 9.04172 12.3485 9.12209 12.041 9.12209C11.5079 9.12209 11.0364 8.78052 10.8724 8.2782C10.8314 8.15764 10.8108 8.01699 10.8108 7.87634C10.8108 7.73569 10.8314 7.59504 10.8724 7.47449C10.8812 7.45706 10.8862 7.43964 10.8908 7.42385C10.8926 7.41755 10.8944 7.41109 10.8963 7.40543C10.9005 7.3927 10.9054 7.38184 10.9134 7.37402C11.0979 6.95207 11.5284 6.65068 12.041 6.65068C12.4306 6.65068 12.6766 6.81142 12.8406 6.95207L13.4147 6.38948C13.1296 6.14294 12.7622 5.96363 12.3349 5.90652V5.55228Z" fill="#F99D12"/>
</svg>
