<svg width="65" height="65" viewBox="0 0 65 65" fill="none" xmlns="http://www.w3.org/2000/svg">
<path d="M29.9693 39.9575L25.0359 44.8909C23.9959 45.9309 22.3426 45.9309 21.2759 44.9175C20.9826 44.6242 20.6893 44.3575 20.3959 44.0642C17.6493 41.2909 15.1693 38.3842 12.9559 35.3442C10.7693 32.3042 9.00927 29.2642 7.72927 26.2509C6.47594 23.2109 5.83594 20.3042 5.83594 17.5309C5.83594 15.7175 6.15594 13.9842 6.79594 12.3842C7.43594 10.7575 8.44927 9.26419 9.8626 7.93086C11.5693 6.25086 13.4359 5.42419 15.4093 5.42419C16.1559 5.42419 16.9026 5.58419 17.5693 5.90419C18.2626 6.22419 18.8759 6.70419 19.3559 7.39753L25.5426 16.1175C26.0226 16.7842 26.3693 17.3975 26.6093 17.9842C26.8493 18.5442 26.9826 19.1042 26.9826 19.6109C26.9826 20.2509 26.7959 20.8909 26.4226 21.5042C26.0759 22.1175 25.5693 22.7575 24.9293 23.3975L22.9026 25.5042C22.6093 25.7975 22.4759 26.1442 22.4759 26.5709C22.4759 26.7842 22.5026 26.9709 22.5559 27.1842C22.6359 27.3975 22.7159 27.5575 22.7693 27.7175C23.2493 28.5975 24.0759 29.7442 25.2493 31.1309C26.4493 32.5175 27.7293 33.9309 29.1159 35.3442C29.3826 35.6109 29.6759 35.8775 29.9426 36.1442C31.0093 37.1842 31.0359 38.8909 29.9693 39.9575Z" fill="#1E8CAF"/>
<path d="M59.0882 48.9708C59.0882 49.7174 58.9549 50.4908 58.6882 51.2374C58.6082 51.4508 58.5282 51.6641 58.4216 51.8774C57.9682 52.8374 57.3816 53.7441 56.6082 54.5974C55.3016 56.0374 53.8616 57.0774 52.2349 57.7441C52.2082 57.7441 52.1816 57.7708 52.1549 57.7708C50.5816 58.4108 48.8749 58.7574 47.0349 58.7574C44.3149 58.7574 41.4082 58.1174 38.3416 56.8108C35.2749 55.5041 32.2082 53.7441 29.1682 51.5308C28.1282 50.7574 27.0882 49.9841 26.1016 49.1574L34.8216 40.4374C35.5682 40.9974 36.2349 41.4241 36.7949 41.7174C36.9282 41.7708 37.0882 41.8508 37.2749 41.9308C37.4882 42.0108 37.7016 42.0374 37.9416 42.0374C38.3949 42.0374 38.7416 41.8774 39.0349 41.5841L41.0616 39.5841C41.7282 38.9174 42.3682 38.4108 42.9816 38.0908C43.5949 37.7174 44.2082 37.5308 44.8749 37.5308C45.3816 37.5308 45.9149 37.6374 46.5016 37.8774C47.0882 38.1174 47.7016 38.4641 48.3682 38.9174L57.1949 45.1841C57.8882 45.6641 58.3682 46.2241 58.6616 46.8908C58.9282 47.5574 59.0882 48.2241 59.0882 48.9708Z" fill="#1E8CAF"/>
</svg>
