<svg width="25" height="24" viewBox="0 0 25 24" fill="none" xmlns="http://www.w3.org/2000/svg">
<path d="M12.1758 2C6.66578 2 2.17578 6.49 2.17578 12C2.17578 17.51 6.66578 22 12.1758 22C17.6858 22 22.1758 17.51 22.1758 12C22.1758 6.49 17.6858 2 12.1758 2ZM15.5358 14.3C15.8258 14.59 15.8258 15.07 15.5358 15.36C15.3858 15.51 15.1958 15.58 15.0058 15.58C14.8158 15.58 14.6258 15.51 14.4758 15.36L12.1758 13.06L9.87578 15.36C9.72578 15.51 9.53578 15.58 9.34578 15.58C9.15578 15.58 8.96578 15.51 8.81578 15.36C8.52578 15.07 8.52578 14.59 8.81578 14.3L11.1158 12L8.81578 9.7C8.52578 9.41 8.52578 8.93 8.81578 8.64C9.10578 8.35 9.58578 8.35 9.87578 8.64L12.1758 10.94L14.4758 8.64C14.7658 8.35 15.2458 8.35 15.5358 8.64C15.8258 8.93 15.8258 9.41 15.5358 9.7L13.2358 12L15.5358 14.3Z" fill="white"/>
</svg>
