<svg width="213" height="194" viewBox="0 0 213 194" fill="none" xmlns="http://www.w3.org/2000/svg">
<g opacity="0.1">
<ellipse cx="101.612" cy="27.3512" rx="16.1904" ry="16.0951" fill="#102B32" fill-opacity="0.6"/>
<ellipse cx="17.1825" cy="111.261" rx="16.1904" ry="16.0951" fill="#102B32" fill-opacity="0.6"/>
<ellipse cx="185.987" cy="111.261" rx="16.1904" ry="16.0951" fill="#102B32" fill-opacity="0.6"/>
<path d="M57.2021 162.005C82.4319 136.953 123.337 136.953 148.567 162.005L168.095 181.395C169.263 182.555 171.157 182.555 172.325 181.395L174.44 179.295C175.608 178.136 175.608 176.255 174.44 175.095L154.912 155.705C129.682 130.653 129.682 90.0365 154.912 64.9847L212.122 8.1633C213.29 7.0035 213.29 5.12308 212.122 3.96327L210.007 1.86326C208.839 0.703455 206.945 0.703458 205.777 1.86326L148.567 58.6847C123.337 83.7365 82.4319 83.7365 57.2021 58.6847L37.6742 39.2945C36.5062 38.1347 34.6124 38.1347 33.4444 39.2945L31.3295 41.3945C30.1614 42.5543 30.1614 44.4347 31.3295 45.5945L50.8573 64.9847C76.0871 90.0365 76.0871 130.653 50.8573 155.705L19.8057 186.538C18.6377 187.698 18.6377 189.578 19.8057 190.738L21.9206 192.838C23.0887 193.998 24.9825 193.998 26.1505 192.838L57.2021 162.005Z" fill="#102B32" fill-opacity="0.6"/>
</g>
</svg>
