<svg width="64" height="65" viewBox="0 0 64 65" fill="none" xmlns="http://www.w3.org/2000/svg">
<path d="M45.3359 9.42419H18.6693C10.6693 9.42419 5.33594 13.4242 5.33594 22.7575V41.4242C5.33594 50.7575 10.6693 54.7575 18.6693 54.7575H45.3359C53.3359 54.7575 58.6693 50.7575 58.6693 41.4242V22.7575C58.6693 13.4242 53.3359 9.42419 45.3359 9.42419ZM46.5893 25.6642L38.2426 32.3309C36.4826 33.7442 34.2426 34.4375 32.0026 34.4375C29.7626 34.4375 27.4959 33.7442 25.7626 32.3309L17.4159 25.6642C16.5626 24.9709 16.4293 23.6909 17.0959 22.8375C17.7893 21.9842 19.0426 21.8242 19.8959 22.5175L28.2426 29.1842C30.2693 30.8109 33.7093 30.8109 35.7359 29.1842L44.0826 22.5175C44.9359 21.8242 46.2159 21.9575 46.8826 22.8375C47.5759 23.6909 47.4426 24.9709 46.5893 25.6642Z" fill="#1E8CAF"/>
</svg>
