<svg width="65" height="65" viewBox="0 0 65 65" fill="none" xmlns="http://www.w3.org/2000/svg">
<path d="M54.1026 24.7685C49.2759 24.7685 47.3026 21.3552 49.7026 17.1685C51.0893 14.7419 50.2626 11.6485 47.8359 10.2619L43.2226 7.62188C41.1159 6.36854 38.3959 7.11521 37.1426 9.22188L36.8493 9.72854C34.4493 13.9152 30.5026 13.9152 28.0759 9.72854L27.7826 9.22188C26.5826 7.11521 23.8626 6.36854 21.7559 7.62188L17.1426 10.2619C14.7159 11.6485 13.8893 14.7685 15.2759 17.1952C17.7026 21.3552 15.7293 24.7685 10.9026 24.7685C8.12927 24.7685 5.83594 27.0352 5.83594 29.8352V34.5285C5.83594 37.3019 8.1026 39.5952 10.9026 39.5952C15.7293 39.5952 17.7026 43.0085 15.2759 47.1952C13.8893 49.6219 14.7159 52.7152 17.1426 54.1019L21.7559 56.7419C23.8626 57.9952 26.5826 57.2486 27.8359 55.1419L28.1293 54.6352C30.5293 50.4485 34.4759 50.4485 36.9026 54.6352L37.1959 55.1419C38.4493 57.2486 41.1693 57.9952 43.2759 56.7419L47.8893 54.1019C50.3159 52.7152 51.1426 49.5952 49.7559 47.1952C47.3293 43.0085 49.3026 39.5952 54.1293 39.5952C56.9026 39.5952 59.1959 37.3285 59.1959 34.5285V29.8352C59.1693 27.0619 56.9026 24.7685 54.1026 24.7685ZM32.5026 40.8485C27.7293 40.8485 23.8359 36.9552 23.8359 32.1819C23.8359 27.4085 27.7293 23.5152 32.5026 23.5152C37.2759 23.5152 41.1693 27.4085 41.1693 32.1819C41.1693 36.9552 37.2759 40.8485 32.5026 40.8485Z" fill="#1E8CAF"/>
</svg>
