<svg width="41" height="40" viewBox="0 0 41 40" fill="none" xmlns="http://www.w3.org/2000/svg">
<path d="M11.5832 6.16246C10.9826 6.76244 10.9663 7.71245 11.5327 8.32911H8.83333C6.28369 8.32911 5.5 9.82915 5.5 11.6624V13.3291C5.5 15.1624 6.28369 16.6624 8.83333 16.6624H33.8333C36.2837 16.6624 37.1667 15.1624 37.1667 13.3291V11.6624C37.1667 9.82915 36.2837 8.32911 33.8333 8.32911H31.1169C31.6833 7.71245 31.667 6.76244 31.0672 6.16246L28.6999 3.79582C28.0838 3.17906 27.0666 3.17906 26.4505 3.79582L21.9168 8.32911H20.7327L16.1999 3.79582C15.583 3.17906 14.5666 3.17906 13.9497 3.79582L11.5832 6.16246Z" fill="#F99D12"/>
<path d="M34.6667 19.9958V29.9958C34.6667 33.6791 31.6833 36.6624 28 36.6624H14.6667C10.9834 36.6624 8 33.6791 8 29.9958V19.9958C8 19.0791 8.75033 18.3291 9.66667 18.3291H12.9504C13.8667 18.3291 14.617 19.0791 14.617 19.9958V25.2291C14.617 26.4625 15.2998 27.5958 16.383 28.1791C16.5091 28.2485 16.6385 28.3089 16.7703 28.3602L16.9087 28.4104L17.0438 28.4527C17.3368 28.537 17.6411 28.5791 17.9504 28.5791C18.5835 28.5791 19.2166 28.3957 19.7668 28.0291L21.3496 26.9958L22.8169 27.9791C23.8333 28.6625 25.133 28.7458 26.217 28.1625C27.3164 27.5791 28 26.4625 28 25.2125V19.9958C28 19.0791 28.7503 18.3291 29.6667 18.3291H33C33.9163 18.3291 34.6667 19.0791 34.6667 19.9958Z" fill="#F99D12"/>
<path d="M26.2829 19.9958C26.2829 19.0791 25.5334 18.3291 24.6162 18.3291H17.8999C16.9836 18.3291 16.2332 19.0791 16.2332 19.9958V25.2458C16.2332 26.5624 17.6997 27.3624 18.8 26.6291L20.3665 25.5958C20.9329 25.2291 21.6499 25.2291 22.2 25.5958L23.6999 26.5958C24.8001 27.3457 26.2829 26.5458 26.2829 25.2125V19.9958Z" fill="#F99D12"/>
</svg>
