<svg width="12" height="15" viewBox="0 0 12 15" fill="none" xmlns="http://www.w3.org/2000/svg">
<path d="M5 0.5H7V1.55782C8.276 1.72835 9.37317 2.26381 10.2245 3L8.51025 4.67999C8.02039 4.25999 7.28577 3.78 6.12244 3.78C4.5918 3.78 3.30615 4.67999 2.75513 5.94C2.73132 5.96335 2.7168 5.99579 2.70422 6.03378C2.69861 6.0507 2.69348 6.06873 2.68811 6.08754C2.67444 6.13501 2.65942 6.1875 2.63269 6.24001C2.51025 6.60001 2.44897 7.02 2.44897 7.44C2.44897 7.86 2.51025 8.28 2.63269 8.64C3.12244 10.14 4.53064 11.16 6.12244 11.16C7.04077 11.16 7.77551 10.92 8.26526 10.56C9.06128 10.02 9.42859 9.17999 9.48975 8.64H6.12244V6.42H11.8776C11.9387 6.78 12 7.14 12 7.62C12 9.48 11.3265 11.04 10.1632 12.06C9.36206 12.7961 8.27417 13.2914 7 13.4474V14.5H5V13.4008C3.09509 13.0594 1.49585 11.8623 0.673462 10.2C0.244873 9.36 0 8.46001 0 7.5C0 6.53999 0.244873 5.64 0.673462 4.8C1.49585 3.13771 3.09509 1.9406 5 1.59923V0.5Z" fill="#F99D12"/>
</svg>
