<svg width="60" height="55" viewBox="0 0 60 55" fill="none" xmlns="http://www.w3.org/2000/svg">
<ellipse cx="28.4731" cy="7.55127" rx="4.58249" ry="4.55554" fill="#F99D12"/>
<ellipse cx="4.58249" cy="31.3008" rx="4.58249" ry="4.55554" fill="#F99D12"/>
<ellipse cx="52.3637" cy="31.3008" rx="4.58249" ry="4.55554" fill="#F99D12"/>
<path d="M15.9029 45.6634C23.0438 38.5728 34.6217 38.5728 41.7626 45.6634L47.2898 51.1516C47.6204 51.4798 48.1564 51.4798 48.487 51.1516L49.0856 50.5572C49.4162 50.2289 49.4162 49.6967 49.0856 49.3684L43.5585 43.8803C36.4175 36.7896 36.4175 25.2935 43.5585 18.2029L59.7511 2.1203C60.0817 1.79203 60.0817 1.2598 59.7511 0.931527L59.1525 0.337144C58.8219 0.00887471 58.2859 0.00887555 57.9553 0.337145L41.7626 16.4198C34.6217 23.5104 23.0438 23.5104 15.9029 16.4198L10.3757 10.9316C10.0451 10.6033 9.50913 10.6033 9.17852 10.9316L8.57992 11.526C8.24932 11.8543 8.24932 12.3865 8.57992 12.7148L14.107 18.2029C21.248 25.2935 21.248 36.7896 14.107 43.8803L5.31826 52.607C4.98766 52.9353 4.98766 53.4676 5.31826 53.7958L5.91687 54.3902C6.24747 54.7185 6.78348 54.7185 7.11408 54.3902L15.9029 45.6634Z" fill="#F99D12"/>
</svg>
