<svg width="34" height="30" viewBox="0 0 34 30" fill="none" xmlns="http://www.w3.org/2000/svg">
<ellipse cx="16.1802" cy="4.42772" rx="2.46149" ry="2.44701" fill="#102B32"/>
<ellipse cx="3.3443" cy="17.1848" rx="2.46149" ry="2.44701" fill="#102B32"/>
<ellipse cx="29.0084" cy="17.1848" rx="2.46149" ry="2.44701" fill="#102B32"/>
<path d="M9.42809 24.8997C13.2639 21.091 19.4829 21.091 23.3187 24.8997L26.2876 27.8477C26.4652 28.024 26.7531 28.024 26.9307 27.8477L27.2522 27.5284C27.4298 27.3521 27.4298 27.0662 27.2522 26.8898L24.2833 23.9419C20.4475 20.1332 20.4475 13.958 24.2833 10.1493L32.9812 1.51048C33.1588 1.33415 33.1588 1.04826 32.9812 0.871931L32.6597 0.552657C32.4821 0.376327 32.1942 0.376328 32.0166 0.552658L23.3187 9.19146C19.4829 13.0002 13.2639 13.0002 9.42809 9.19145L6.45919 6.24348C6.28161 6.06715 5.99369 6.06715 5.81611 6.24348L5.49456 6.56276C5.31698 6.73909 5.31698 7.02498 5.49456 7.20131L8.46347 10.1493C12.2993 13.958 12.2993 20.1332 8.46347 23.9419L3.74256 28.6295C3.56498 28.8058 3.56498 29.0917 3.74256 29.268L4.0641 29.5873C4.24169 29.7636 4.5296 29.7636 4.70719 29.5873L9.42809 24.8997Z" fill="#102B32"/>
</svg>
