<svg width="118" height="55" viewBox="0 0 118 55" fill="none" xmlns="http://www.w3.org/2000/svg">
<ellipse cx="58.1802" cy="4.42772" rx="2.46149" ry="2.44701" fill="#102B32"/>
<ellipse cx="45.3443" cy="17.1848" rx="2.46149" ry="2.44701" fill="#102B32"/>
<ellipse cx="71.0084" cy="17.1848" rx="2.46149" ry="2.44701" fill="#102B32"/>
<path d="M51.4281 24.8997C55.2639 21.091 61.4829 21.091 65.3187 24.8997L68.2876 27.8477C68.4652 28.024 68.7531 28.024 68.9307 27.8477L69.2522 27.5284C69.4298 27.3521 69.4298 27.0662 69.2522 26.8898L66.2833 23.9419C62.4475 20.1332 62.4475 13.958 66.2833 10.1493L74.9812 1.51048C75.1588 1.33415 75.1588 1.04826 74.9812 0.871931L74.6597 0.552657C74.4821 0.376327 74.1942 0.376328 74.0166 0.552658L65.3187 9.19146C61.4829 13.0002 55.2639 13.0002 51.4281 9.19145L48.4592 6.24348C48.2816 6.06715 47.9937 6.06715 47.8161 6.24348L47.4946 6.56276C47.317 6.73909 47.317 7.02498 47.4946 7.20131L50.4635 10.1493C54.2993 13.958 54.2993 20.1332 50.4635 23.9419L45.7426 28.6295C45.565 28.8058 45.565 29.0917 45.7426 29.268L46.0641 29.5873C46.2417 29.7636 46.5296 29.7636 46.7072 29.5873L51.4281 24.8997Z" fill="#102B32"/>
<path d="M1.27979 52.2517L3.69872 48.6936L1.20947 41.8446H3.22056L4.93632 46.7669H5.00664L8.35377 41.8446H10.5336L3.45964 52.2517H1.27979ZM15.1576 49.7202C14.1075 49.7202 13.2074 49.5562 12.4574 49.228C11.7167 48.8998 11.1541 48.4545 10.7697 47.892C10.3947 47.3294 10.2072 46.7059 10.2072 46.0215C10.2072 45.2152 10.4135 44.4839 10.826 43.8276C11.2385 43.1713 11.8198 42.6556 12.5699 42.2806C13.3293 41.8962 14.2013 41.704 15.1857 41.704C16.2358 41.704 17.1312 41.8681 17.8719 42.1962C18.6219 42.5244 19.1845 42.9697 19.5595 43.5322C19.9439 44.0948 20.1361 44.7183 20.1361 45.4027C20.1361 46.209 19.9298 46.9403 19.5173 47.5966C19.1048 48.2529 18.5188 48.7733 17.7593 49.1577C17.0093 49.5327 16.142 49.7202 15.1576 49.7202ZM15.1576 48.1732C15.7389 48.1732 16.2499 48.0607 16.6905 47.8357C17.1405 47.6013 17.4874 47.2825 17.7312 46.8794C17.975 46.4668 18.0969 45.9981 18.0969 45.473C18.0969 45.0511 17.9844 44.6714 17.7593 44.3339C17.5437 43.9963 17.2156 43.7338 16.7749 43.5463C16.3342 43.3494 15.8045 43.251 15.1857 43.251C14.6044 43.251 14.0887 43.3682 13.6387 43.6026C13.1981 43.8276 12.8558 44.1464 12.6121 44.5589C12.3683 44.962 12.2464 45.4261 12.2464 45.9512C12.2464 46.3731 12.3542 46.7528 12.5699 47.0903C12.7949 47.4279 13.1277 47.6951 13.5684 47.892C14.0091 48.0795 14.5388 48.1732 15.1576 48.1732ZM24.5621 49.7202C23.8683 49.7202 23.2776 49.6077 22.79 49.3827C22.3119 49.1577 21.9509 48.8436 21.7071 48.4404C21.4634 48.0373 21.3415 47.5779 21.3415 47.0622C21.3415 46.7716 21.3649 46.5137 21.4118 46.2887L22.2697 41.8446H24.2386L23.3948 46.2606C23.3667 46.4106 23.3526 46.5559 23.3526 46.6966C23.3526 47.006 23.4276 47.2732 23.5776 47.4982C23.7276 47.7232 23.9433 47.8966 24.2245 48.0185C24.5152 48.1404 24.8668 48.2014 25.2793 48.2014C25.6356 48.2014 25.9778 48.1357 26.3059 48.0045C26.6341 47.8732 26.9154 47.7091 27.1498 47.5122C27.3935 47.3154 27.581 47.1138 27.7123 46.9075L28.6968 41.8446H30.6657L29.1749 49.5796H27.206L27.431 48.4264H27.3466C27.206 48.6326 26.9997 48.8342 26.7278 49.0311C26.456 49.228 26.1325 49.3921 25.7575 49.5233C25.3824 49.6546 24.984 49.7202 24.5621 49.7202ZM30.858 49.5796L32.3488 41.8446H34.3177L34.0927 42.9978H34.177C34.2802 42.7916 34.4443 42.59 34.6693 42.3931C34.9037 42.1962 35.1849 42.0321 35.5131 41.9009C35.8506 41.7696 36.221 41.704 36.6241 41.704H37.6226L37.257 43.6026H36.0053C35.6209 43.6026 35.274 43.6635 34.9646 43.7854C34.6552 43.8979 34.3974 44.0385 34.1911 44.2073C33.9848 44.3761 33.8395 44.5495 33.7551 44.7277L32.8269 49.5796H30.858ZM46.1511 49.7202C45.1666 49.7202 44.3134 49.5562 43.5915 49.228C42.879 48.8905 42.3352 48.4451 41.9601 47.892C41.5851 47.3294 41.3976 46.7059 41.3976 46.0215C41.3976 45.2152 41.6039 44.4839 42.0164 43.8276C42.4289 43.1713 43.0102 42.6556 43.7603 42.2806C44.5197 41.8962 45.3917 41.704 46.3761 41.704C47.2293 41.704 47.9887 41.8071 48.6544 42.0134C49.3295 42.2103 49.8498 42.4259 50.2155 42.6603L49.892 44.2917C49.5357 44.0292 49.0529 43.7901 48.4435 43.5744C47.834 43.3588 47.1449 43.251 46.3761 43.251C45.7948 43.251 45.2791 43.3682 44.8291 43.6026C44.3885 43.8276 44.0462 44.1464 43.8025 44.5589C43.5587 44.962 43.4368 45.4261 43.4368 45.9512C43.4368 46.3825 43.5493 46.7669 43.7743 47.1044C43.9994 47.4325 44.3369 47.6951 44.7869 47.892C45.237 48.0795 45.7901 48.1732 46.4464 48.1732C46.9527 48.1732 47.4403 48.1123 47.909 47.9904C48.3778 47.8685 48.7294 47.7326 48.9638 47.5826L48.6544 49.2421C48.4294 49.3639 48.0825 49.4765 47.6137 49.5796C47.1543 49.6733 46.6668 49.7202 46.1511 49.7202ZM50.3229 49.5796L52.2778 39.4538H54.2467L53.5575 42.9978H53.6419C53.7826 42.7916 53.9888 42.59 54.2607 42.3931C54.5326 42.1962 54.8561 42.0321 55.2311 41.9009C55.6061 41.7696 56.0046 41.704 56.4265 41.704C57.1203 41.704 57.7063 41.8165 58.1845 42.0415C58.672 42.2665 59.0377 42.5806 59.2814 42.9838C59.5252 43.3869 59.6471 43.8463 59.6471 44.362C59.6471 44.6526 59.6236 44.9105 59.5768 45.1355L58.7189 49.5796H56.75L57.5938 45.1636C57.6219 45.0042 57.636 44.8589 57.636 44.7277C57.636 44.4183 57.561 44.151 57.411 43.926C57.261 43.701 57.0406 43.5276 56.75 43.4057C56.4687 43.2838 56.1218 43.2228 55.7093 43.2228C55.353 43.2228 55.0108 43.2885 54.6826 43.4197C54.3545 43.551 54.0685 43.7151 53.8248 43.912C53.5904 44.1089 53.4075 44.3104 53.2763 44.5167L52.2918 49.5796H50.3229ZM63.5944 49.7202C62.8725 49.7202 62.2725 49.6218 61.7943 49.4249C61.3255 49.228 60.9786 48.9655 60.7536 48.6373C60.538 48.3092 60.4301 47.9529 60.4301 47.5685C60.4301 46.8091 60.7255 46.1903 61.3161 45.7121C61.9068 45.2339 62.7694 44.9949 63.9038 44.9949H66.1962C66.6087 44.9949 66.9228 44.9667 67.1385 44.9105C67.3635 44.8448 67.5135 44.7652 67.5885 44.6714C67.6729 44.5683 67.7151 44.4464 67.7151 44.3057C67.7151 44.1464 67.6307 43.9963 67.4619 43.8557C67.2932 43.7057 67.0072 43.5791 66.6041 43.476C66.2103 43.3729 65.6899 43.3213 65.043 43.3213C64.3679 43.3213 63.707 43.3822 63.06 43.5041C62.4131 43.626 61.9209 43.7666 61.5833 43.926L61.9209 42.2103C62.2209 42.079 62.6756 41.9618 63.285 41.8587C63.9038 41.7555 64.5695 41.704 65.2821 41.704C66.2853 41.704 67.1103 41.8259 67.7573 42.0696C68.4136 42.304 68.8917 42.6181 69.1918 43.0119C69.4918 43.4057 69.6418 43.8463 69.6418 44.3339C69.6418 44.5401 69.623 44.723 69.5855 44.8824L68.6714 49.5796H66.7025L66.9134 48.4545H66.8713C66.6744 48.6514 66.4072 48.8483 66.0696 49.0452C65.7415 49.2421 65.3618 49.4061 64.9305 49.5374C64.4992 49.6593 64.0539 49.7202 63.5944 49.7202ZM64.5648 48.1732C64.9492 48.1732 65.3102 48.1264 65.6477 48.0326C65.9946 47.9388 66.2947 47.8216 66.5478 47.681C66.8009 47.5404 66.9978 47.3997 67.1385 47.2591L67.4197 45.7965C67.3447 45.8621 67.1666 45.9231 66.8853 45.9793C66.6134 46.0262 66.2665 46.0496 65.8446 46.0496H64.2976C63.707 46.0496 63.2663 46.1528 62.9756 46.359C62.6944 46.5653 62.5537 46.8231 62.5537 47.1325C62.5537 47.3107 62.6147 47.4794 62.7366 47.6388C62.8584 47.7888 63.0694 47.9154 63.3694 48.0185C63.6694 48.1217 64.0679 48.1732 64.5648 48.1732ZM70.2855 49.5796L72.2404 39.4538H74.2093L72.2544 49.5796H70.2855ZM73.9355 49.5796L75.8903 39.4538H77.8592L75.9044 49.5796H73.9355ZM82.9858 49.7202C81.917 49.7202 81.0122 49.5468 80.2716 49.1999C79.5402 48.8436 78.9965 48.3795 78.6402 47.8076C78.2839 47.2357 78.1058 46.6215 78.1058 45.9652C78.1058 45.1683 78.3026 44.4464 78.6964 43.7995C79.0996 43.1432 79.6528 42.6322 80.3559 42.2665C81.0591 41.8915 81.8514 41.704 82.7327 41.704C83.6046 41.704 84.3641 41.8587 85.011 42.1681C85.6673 42.4681 86.1689 42.89 86.5158 43.4338C86.8627 43.9682 87.0361 44.5776 87.0361 45.2621C87.0361 45.5808 87.0033 45.8902 86.9377 46.1903H80.0887C80.1544 46.5559 80.3184 46.8841 80.5809 47.1747C80.8435 47.456 81.2044 47.681 81.6638 47.8498C82.1326 48.0185 82.6811 48.1029 83.3093 48.1029C83.8531 48.1029 84.3687 48.0513 84.8563 47.9482C85.3532 47.8357 85.7282 47.7044 85.9814 47.5544L85.6438 49.2421C85.4094 49.3733 85.0485 49.4858 84.5609 49.5796C84.0734 49.6733 83.5484 49.7202 82.9858 49.7202ZM85.0813 45.0652C85.0625 44.7277 84.9688 44.4183 84.8 44.137C84.6313 43.8463 84.3828 43.6119 84.0547 43.4338C83.7265 43.2463 83.3187 43.1525 82.8311 43.1525C82.4467 43.1525 82.067 43.2322 81.692 43.3916C81.3169 43.5416 80.9935 43.762 80.7216 44.0526C80.4497 44.3432 80.2762 44.6808 80.2012 45.0652H85.0813ZM87.6628 49.5796L89.1536 41.8446H91.1225L90.8975 42.9978H90.9819C91.1225 42.7916 91.3288 42.59 91.6006 42.3931C91.8725 42.1962 92.196 42.0321 92.571 41.9009C92.9461 41.7696 93.3445 41.704 93.7664 41.704C94.4602 41.704 95.0462 41.8165 95.5244 42.0415C96.0119 42.2665 96.3776 42.5806 96.6213 42.9838C96.8651 43.3869 96.987 43.8463 96.987 44.362C96.987 44.6526 96.9636 44.9105 96.9167 45.1355L96.0588 49.5796H94.0899L94.9337 45.1636C94.9618 45.0042 94.9759 44.8589 94.9759 44.7277C94.9759 44.4183 94.9009 44.151 94.7509 43.926C94.6009 43.701 94.3806 43.5276 94.0899 43.4057C93.8086 43.2838 93.4617 43.2228 93.0492 43.2228C92.6929 43.2228 92.3507 43.2885 92.0226 43.4197C91.6944 43.551 91.4084 43.7151 91.1647 43.912C90.9303 44.1089 90.7475 44.3104 90.6162 44.5167L89.6317 49.5796H87.6628ZM102.13 52.3923C101.286 52.3923 100.489 52.2798 99.739 52.0548C98.9983 51.8298 98.4076 51.586 97.9669 51.3235L98.3045 49.5937C98.6889 49.8843 99.2139 50.1515 99.8796 50.3953C100.555 50.6484 101.272 50.775 102.031 50.775C102.594 50.775 103.077 50.6859 103.48 50.5078C103.883 50.3296 104.206 50.0765 104.45 49.7484C104.694 49.4296 104.867 49.0452 104.971 48.5951L105.069 48.1592H104.985C104.75 48.4311 104.366 48.6795 103.831 48.9045C103.297 49.1202 102.688 49.228 102.003 49.228C101.244 49.228 100.573 49.078 99.9921 48.778C99.4202 48.4686 98.9795 48.056 98.6701 47.5404C98.3607 47.0153 98.206 46.434 98.206 45.7965C98.206 45.0183 98.4029 44.3198 98.7967 43.701C99.1905 43.0822 99.7343 42.5947 100.428 42.2384C101.131 41.8821 101.924 41.704 102.805 41.704C103.292 41.704 103.747 41.7696 104.169 41.9009C104.591 42.0321 104.957 42.1962 105.266 42.3931C105.575 42.59 105.814 42.7916 105.983 42.9978H106.068L106.293 41.8446H108.261L106.925 48.778C106.785 49.5186 106.513 50.1562 106.11 50.6906C105.707 51.2344 105.172 51.6516 104.507 51.9423C103.841 52.2423 103.049 52.3923 102.13 52.3923ZM102.735 47.681C103.138 47.681 103.513 47.6341 103.86 47.5404C104.206 47.4466 104.507 47.3294 104.76 47.1888C105.013 47.0481 105.205 46.9075 105.336 46.7669L105.786 44.4604C105.664 44.2729 105.472 44.0854 105.21 43.8979C104.947 43.7104 104.624 43.5557 104.239 43.4338C103.855 43.3119 103.433 43.251 102.974 43.251C102.411 43.251 101.924 43.3541 101.511 43.5604C101.108 43.7573 100.794 44.0432 100.569 44.4183C100.353 44.7839 100.245 45.2105 100.245 45.698C100.245 46.0543 100.334 46.3872 100.512 46.6966C100.7 46.9966 100.981 47.2357 101.356 47.4138C101.731 47.5919 102.191 47.681 102.735 47.681ZM113.864 49.7202C112.795 49.7202 111.89 49.5468 111.149 49.1999C110.418 48.8436 109.874 48.3795 109.518 47.8076C109.162 47.2357 108.984 46.6215 108.984 45.9652C108.984 45.1683 109.18 44.4464 109.574 43.7995C109.977 43.1432 110.531 42.6322 111.234 42.2665C111.937 41.8915 112.729 41.704 113.61 41.704C114.482 41.704 115.242 41.8587 115.889 42.1681C116.545 42.4681 117.047 42.89 117.394 43.4338C117.741 43.9682 117.914 44.5776 117.914 45.2621C117.914 45.5808 117.881 45.8902 117.816 46.1903H110.967C111.032 46.5559 111.196 46.8841 111.459 47.1747C111.721 47.456 112.082 47.681 112.542 47.8498C113.01 48.0185 113.559 48.1029 114.187 48.1029C114.731 48.1029 115.247 48.0513 115.734 47.9482C116.231 47.8357 116.606 47.7044 116.859 47.5544L116.522 49.2421C116.287 49.3733 115.926 49.4858 115.439 49.5796C114.951 49.6733 114.426 49.7202 113.864 49.7202ZM115.959 45.0652C115.94 44.7277 115.847 44.4183 115.678 44.137C115.509 43.8463 115.261 43.6119 114.932 43.4338C114.604 43.2463 114.196 43.1525 113.709 43.1525C113.325 43.1525 112.945 43.2322 112.57 43.3916C112.195 43.5416 111.871 43.762 111.599 44.0526C111.328 44.3432 111.154 44.6808 111.079 45.0652H115.959Z" fill="#102B32"/>
</svg>
