<svg width="24" height="24" viewBox="0 0 24 24" fill="none" xmlns="http://www.w3.org/2000/svg">
<path d="M4.59429 6.9599C4.59429 4.4447 6.63491 2.3999 9.14497 2.3999C11.655 2.3999 13.6957 4.4447 13.6957 6.9599C13.6861 9.4271 11.7604 11.4239 9.30784 11.5103H9.24078C9.1833 11.5007 9.10665 11.5007 9.03001 11.5103C6.51995 11.4239 4.59429 9.4271 4.59429 6.9599Z" fill="#F99D12"/>
<path d="M4.28773 14.0639C6.97982 12.2783 11.3389 12.2783 14.0118 14.0639C15.219 14.8703 15.88 15.9647 15.8896 17.1455C15.8896 18.3359 15.219 19.4303 14.0118 20.2463C12.6706 21.1487 10.9078 21.5999 9.14498 21.5999C7.38219 21.5999 5.6194 21.1487 4.27815 20.2463C3.07102 19.4399 2.40039 18.3455 2.40039 17.1647C2.40039 15.9839 3.07102 14.8799 4.28773 14.0639Z" fill="#F99D12"/>
<path d="M19.6738 7.52629C19.8271 9.38869 18.505 11.0207 16.6752 11.2415H16.6273C16.5698 11.2415 16.5123 11.2415 16.4644 11.2607C15.5351 11.3087 14.6824 11.0111 14.0406 10.4639C15.0273 9.58069 15.5926 8.25589 15.4776 6.81589C15.4106 6.03829 15.1423 5.32789 14.7399 4.72309C15.104 4.54069 15.5255 4.42549 15.9566 4.38709C17.8344 4.22389 19.511 5.62549 19.6738 7.52629Z" fill="#F99D12"/>
<path d="M19.923 18.6911C20.9193 18.1439 21.5133 17.3375 21.5899 16.4063C21.6762 15.4847 21.2259 14.5919 20.3445 13.8815C18.7062 12.5567 16.0429 12.1439 13.9256 12.7583C14.74 13.0559 15.4872 13.4591 16.1291 13.9679C17.2596 14.8799 17.8248 16.0223 17.729 17.2127C17.6524 18.0383 17.25 18.8159 16.5602 19.4399C17.7578 19.4687 18.9649 19.2191 19.923 18.6911Z" fill="#F99D12"/>
</svg>
