<svg width="65" height="65" viewBox="0 0 65 65" fill="none" xmlns="http://www.w3.org/2000/svg">
<path d="M29.9693 40.412L25.0359 45.3453C23.9959 46.3853 22.3426 46.3853 21.2759 45.372C20.9826 45.0787 20.6893 44.812 20.3959 44.5187C17.6493 41.7453 15.1693 38.8387 12.9559 35.7987C10.7693 32.7587 9.00927 29.7187 7.72927 26.7053C6.47594 23.6653 5.83594 20.7587 5.83594 17.9853C5.83594 16.172 6.15594 14.4387 6.79594 12.8387C7.43594 11.212 8.44927 9.71866 9.8626 8.38533C11.5693 6.70533 13.4359 5.87866 15.4093 5.87866C16.1559 5.87866 16.9026 6.03866 17.5693 6.35866C18.2626 6.67866 18.8759 7.15866 19.3559 7.852L25.5426 16.572C26.0226 17.2387 26.3693 17.852 26.6093 18.4387C26.8493 18.9987 26.9826 19.5587 26.9826 20.0653C26.9826 20.7053 26.7959 21.3453 26.4226 21.9587C26.0759 22.572 25.5693 23.212 24.9293 23.852L22.9026 25.9587C22.6093 26.252 22.4759 26.5987 22.4759 27.0253C22.4759 27.2387 22.5026 27.4253 22.5559 27.6387C22.6359 27.852 22.7159 28.012 22.7693 28.172C23.2493 29.052 24.0759 30.1987 25.2493 31.5853C26.4493 32.972 27.7293 34.3853 29.1159 35.7987C29.3826 36.0653 29.6759 36.332 29.9426 36.5987C31.0093 37.6387 31.0359 39.3453 29.9693 40.412Z" fill="#1E8CAF"/>
<path d="M59.0882 49.4254C59.0882 50.172 58.9549 50.9454 58.6882 51.692C58.6082 51.9054 58.5282 52.1187 58.4216 52.332C57.9682 53.292 57.3816 54.1987 56.6082 55.052C55.3016 56.492 53.8616 57.532 52.2349 58.1987C52.2082 58.1987 52.1816 58.2253 52.1549 58.2253C50.5816 58.8654 48.8749 59.212 47.0349 59.212C44.3149 59.212 41.4082 58.572 38.3416 57.2654C35.2749 55.9587 32.2082 54.1987 29.1682 51.9854C28.1282 51.212 27.0882 50.4387 26.1016 49.612L34.8216 40.892C35.5682 41.452 36.2349 41.8787 36.7949 42.172C36.9282 42.2254 37.0882 42.3054 37.2749 42.3854C37.4882 42.4654 37.7016 42.492 37.9416 42.492C38.3949 42.492 38.7416 42.332 39.0349 42.0387L41.0616 40.0387C41.7282 39.372 42.3682 38.8654 42.9816 38.5454C43.5949 38.172 44.2082 37.9854 44.8749 37.9854C45.3816 37.9854 45.9149 38.092 46.5016 38.332C47.0882 38.572 47.7016 38.9187 48.3682 39.372L57.1949 45.6387C57.8882 46.1187 58.3682 46.6787 58.6616 47.3454C58.9282 48.012 59.0882 48.6787 59.0882 49.4254Z" fill="#1E8CAF"/>
</svg>
