<svg width="24" height="25" viewBox="0 0 24 25" fill="none" xmlns="http://www.w3.org/2000/svg">
<path d="M20.165 9.17515C19.1712 4.84812 15.3568 2.90002 12.0063 2.90002C12.0063 2.90002 12.0063 2.90002 11.9968 2.90002C8.65575 2.90002 4.83197 4.83876 3.83816 9.16578C2.73078 13.9986 5.72166 18.0914 8.4286 20.667C9.43187 21.6224 10.7191 22.1 12.0063 22.1C13.2935 22.1 14.5807 21.6224 15.5745 20.667C18.2815 18.0914 21.2723 14.0079 20.165 9.17515ZM12.0063 13.8674C10.3594 13.8674 9.02488 12.5469 9.02488 10.9172C9.02488 9.28754 10.3594 7.96695 12.0063 7.96695C13.6532 7.96695 14.9877 9.28754 14.9877 10.9172C14.9877 12.5469 13.6532 13.8674 12.0063 13.8674Z" fill="#F99D12"/>
</svg>
