<svg width="65" height="64" viewBox="0 0 65 64" fill="none" xmlns="http://www.w3.org/2000/svg">
<path d="M48.1815 16.3203L10.9549 53.547C9.8082 54.6936 7.8882 54.587 6.95487 53.2803C5.62154 51.4403 5.35487 48.8803 6.74154 46.667L14.1015 34.8536C15.0882 33.2803 15.0882 30.7203 14.1015 29.147L6.74154 17.3336C4.26154 13.387 7.11487 8.26697 11.7549 8.26697H42.2882C44.1015 8.26697 46.3415 9.5203 47.3015 11.0403L48.5549 13.0136C49.1949 14.0803 49.0615 15.4403 48.1815 16.3203Z" fill="#1E8CAF" fill-opacity="0.2"/>
<path d="M58.1815 34.9603L44.3682 53.3603C43.4082 54.667 41.2749 55.7336 39.6215 55.7336H20.5282C18.1549 55.7336 16.9549 52.8536 18.6349 51.1736L49.3549 20.4803C50.5549 19.2803 52.6082 19.4936 53.5149 20.9603L58.4482 28.8803C59.5149 30.587 59.4082 33.3336 58.1815 34.9603Z" fill="#1E8CAF" fill-opacity="0.2"/>
</svg>
