<svg width="17" height="17" viewBox="0 0 17 17" fill="none" xmlns="http://www.w3.org/2000/svg">
<path fill-rule="evenodd" clip-rule="evenodd" d="M3.93443 1.26811C2.6721 1.52057 1.68537 2.5073 1.4329 3.76964C0.772366 7.07231 0.772366 10.4731 1.4329 13.7758C1.68537 15.0381 2.6721 16.0248 3.93443 16.2773C7.23711 16.9378 10.6379 16.9378 13.9406 16.2773C15.2029 16.0248 16.1896 15.0381 16.4421 13.7758C17.1026 10.4731 17.1026 7.07231 16.4421 3.76964C16.1896 2.5073 15.2029 1.52057 13.9406 1.26811C10.6379 0.607571 7.23711 0.607571 3.93443 1.26811ZM8.045 11.7202L13.715 6.0502C14.005 5.7502 14.005 5.28021 13.715 4.99021C13.425 4.70021 12.945 4.70021 12.655 4.99021L7.515 10.1302L5.215 7.8302C4.925 7.5402 4.445 7.5402 4.155 7.8302C3.865 8.1202 3.865 8.6002 4.155 8.89021L6.985 11.7202C7.125 11.8602 7.315 11.9402 7.515 11.9402C7.715 11.9402 7.905 11.8602 8.045 11.7202Z" fill="#F99D12"/>
</svg>
