<svg width="64" height="65" viewBox="0 0 64 65" fill="none" xmlns="http://www.w3.org/2000/svg">
<path d="M45.3359 9.87866H18.6693C10.6693 9.87866 5.33594 13.8787 5.33594 23.212V41.8787C5.33594 51.212 10.6693 55.212 18.6693 55.212H45.3359C53.3359 55.212 58.6693 51.212 58.6693 41.8787V23.212C58.6693 13.8787 53.3359 9.87866 45.3359 9.87866ZM46.5893 26.1187L38.2426 32.7853C36.4826 34.1987 34.2426 34.892 32.0026 34.892C29.7626 34.892 27.4959 34.1987 25.7626 32.7853L17.4159 26.1187C16.5626 25.4253 16.4293 24.1453 17.0959 23.292C17.7893 22.4387 19.0426 22.2787 19.8959 22.972L28.2426 29.6387C30.2693 31.2653 33.7093 31.2653 35.7359 29.6387L44.0826 22.972C44.9359 22.2787 46.2159 22.412 46.8826 23.292C47.5759 24.1453 47.4426 25.4253 46.5893 26.1187Z" fill="#1E8CAF"/>
</svg>
