<svg width="16" height="16" viewBox="0 0 16 16" fill="none" xmlns="http://www.w3.org/2000/svg">
<path fill-rule="evenodd" clip-rule="evenodd" d="M13.7865 1.48667C13.9865 1.28667 14.3132 1.28667 14.5132 1.48667C14.7198 1.68667 14.7198 2.00667 14.5132 2.20667L2.20651 14.5133C2.10651 14.6133 1.97984 14.6667 1.84651 14.6667C1.71317 14.6667 1.58651 14.6133 1.48651 14.52C1.28651 14.32 1.28651 13.9933 1.48651 13.7933L3.44621 11.8326C2.85569 11.2909 2.3106 10.6395 1.83325 9.89333C1.16659 8.84666 1.16659 7.14666 1.83325 6.09999C2.60659 4.88666 3.55325 3.93333 4.60659 3.28C5.65992 2.64 6.81325 2.28666 7.99992 2.28666C9.32397 2.28666 10.611 2.72028 11.7527 3.52158L13.7865 1.48667ZM9.51125 5.76425C9.081 5.4724 8.56118 5.30666 7.99992 5.30666C6.50659 5.30666 5.30659 6.51333 5.30659 8C5.30659 8.56105 5.47597 9.0807 5.76666 9.51086L6.34285 8.93436C6.18556 8.65656 6.09334 8.33667 6.09334 8.00001C6.09334 6.95334 6.94668 6.09334 8.00001 6.09334C8.33631 6.09334 8.65588 6.18536 8.93347 6.34234L9.51125 5.76425Z" fill="#102B32"/>
<path d="M14.1799 6.11999C13.9866 5.81333 13.7799 5.52666 13.5666 5.25999C13.3199 4.94666 12.8532 4.91999 12.5732 5.19999L10.5732 7.19999C10.7199 7.63999 10.7466 8.14666 10.6132 8.67333C10.3799 9.61333 9.61988 10.3733 8.67988 10.6067C8.15322 10.74 7.64655 10.7133 7.20655 10.5667L5.56655 12.2067C5.23322 12.54 5.33988 13.1267 5.78655 13.3C6.49988 13.5733 7.23988 13.7133 7.99988 13.7133C9.18655 13.7133 10.3399 13.3667 11.3932 12.72C12.4666 12.0533 13.4332 11.0733 14.2132 9.82666C14.8466 8.81999 14.8132 7.12666 14.1799 6.11999Z" fill="#102B32"/>
<path d="M9.90664 8.00001C9.90664 9.04668 9.0533 9.90668 7.99997 9.90668C7.95997 9.90668 7.92664 9.90668 7.88664 9.89335L9.8933 7.88668C9.90664 7.92668 9.90664 7.96001 9.90664 8.00001Z" fill="#102B32"/>
</svg>
