<svg width="65" height="64" viewBox="0 0 65 64" fill="none" xmlns="http://www.w3.org/2000/svg">
<path d="M51.456 13.2267C41.0293 2.80007 24.096 2.80007 13.6693 13.2267C3.056 23.8401 3.24267 41.1467 14.2027 51.5467C24.336 61.1201 40.7627 61.1201 50.896 51.5467C61.8827 41.1467 62.0693 23.8401 51.456 13.2267ZM44.176 44.4001C40.976 47.4401 36.7627 48.9601 32.5493 48.9601C28.336 48.9601 24.1227 47.4401 20.9227 44.4001C20.1227 43.6267 20.096 42.3734 20.8427 41.5734C21.616 40.7734 22.8693 40.7467 23.6693 41.4934C28.5493 46.1067 36.5227 46.1334 41.4293 41.4934C42.2293 40.7467 43.5093 40.7734 44.256 41.5734C45.0293 42.3734 44.976 43.6267 44.176 44.4001Z" fill="#1E8CAF"/>
</svg>
