<svg width="106" height="55" viewBox="0 0 106 55" fill="none" xmlns="http://www.w3.org/2000/svg">
<ellipse cx="52.1802" cy="4.42772" rx="2.46149" ry="2.44701" fill="#102B32"/>
<ellipse cx="39.3443" cy="17.1848" rx="2.46149" ry="2.44701" fill="#102B32"/>
<ellipse cx="65.0084" cy="17.1848" rx="2.46149" ry="2.44701" fill="#102B32"/>
<path d="M45.4281 24.8997C49.2639 21.091 55.4829 21.091 59.3187 24.8997L62.2876 27.8477C62.4652 28.024 62.7531 28.024 62.9307 27.8477L63.2522 27.5284C63.4298 27.3521 63.4298 27.0662 63.2522 26.8898L60.2833 23.9419C56.4475 20.1332 56.4475 13.958 60.2833 10.1493L68.9812 1.51048C69.1588 1.33415 69.1588 1.04826 68.9812 0.871931L68.6597 0.552657C68.4821 0.376327 68.1942 0.376328 68.0166 0.552658L59.3187 9.19146C55.4829 13.0002 49.2639 13.0002 45.4281 9.19145L42.4592 6.24348C42.2816 6.06715 41.9937 6.06715 41.8161 6.24348L41.4946 6.56276C41.317 6.73909 41.317 7.02498 41.4946 7.20131L44.4635 10.1493C48.2993 13.958 48.2993 20.1332 44.4635 23.9419L39.7426 28.6295C39.565 28.8058 39.565 29.0917 39.7426 29.268L40.0641 29.5873C40.2417 29.7636 40.5296 29.7636 40.7072 29.5873L45.4281 24.8997Z" fill="#102B32"/>
<path d="M0.914133 49.5796L2.40487 41.8446H4.37378L4.14876 42.9978H4.23314C4.43941 42.6697 4.77224 42.3743 5.23165 42.1118C5.69107 41.8399 6.20204 41.704 6.76459 41.704C7.43026 41.704 7.98812 41.8493 8.43815 42.14C8.88819 42.4212 9.18352 42.7353 9.32416 43.0822H9.40854C9.59605 42.8666 9.84451 42.6556 10.1539 42.4494C10.4633 42.2337 10.8196 42.0556 11.2227 41.9149C11.6259 41.7743 12.0384 41.704 12.4603 41.704C13.426 41.704 14.1667 41.9571 14.6824 42.4634C15.2074 42.9697 15.4699 43.626 15.4699 44.4323C15.4699 44.6573 15.4465 44.8964 15.3996 45.1496L14.5558 49.5796H12.5869L13.4448 45.1355C13.4729 44.9949 13.487 44.8542 13.487 44.7136C13.487 44.2542 13.3323 43.8932 13.0229 43.6307C12.7135 43.3588 12.2822 43.2228 11.729 43.2228C11.3446 43.2228 10.9977 43.2932 10.6883 43.4338C10.3789 43.5744 10.1352 43.7244 9.95702 43.8838C9.78826 44.0338 9.67575 44.1464 9.61949 44.2214C9.63825 44.3151 9.63825 44.4604 9.61949 44.6573C9.61012 44.8542 9.59137 45.0183 9.56324 45.1496L8.71942 49.5796H6.75052L7.6084 45.1355C7.63653 44.9949 7.65059 44.8542 7.65059 44.7136C7.65059 44.2448 7.50527 43.8791 7.21462 43.6166C6.93335 43.3541 6.53957 43.2228 6.03328 43.2228C5.7145 43.2228 5.40979 43.2885 5.11915 43.4197C4.8285 43.551 4.57535 43.7151 4.35971 43.912C4.15345 44.1089 3.98937 44.3104 3.86749 44.5167L2.88304 49.5796H0.914133ZM16.5349 52.2517L18.9539 48.6936L16.4646 41.8446H18.4757L20.1915 46.7669H20.2618L23.6089 41.8446H25.7888L18.7148 52.2517H16.5349ZM34.0031 49.7202C33.0187 49.7202 32.1655 49.5562 31.4435 49.228C30.731 48.8905 30.1872 48.4451 29.8122 47.892C29.4371 47.3294 29.2496 46.7059 29.2496 46.0215C29.2496 45.2152 29.4559 44.4839 29.8684 43.8276C30.281 43.1713 30.8622 42.6556 31.6123 42.2806C32.3717 41.8962 33.2437 41.704 34.2281 41.704C35.0813 41.704 35.8408 41.8071 36.5064 42.0134C37.1815 42.2103 37.7018 42.4259 38.0675 42.6603L37.744 44.2917C37.3878 44.0292 36.9049 43.7901 36.2955 43.5744C35.6861 43.3588 34.9969 43.251 34.2281 43.251C33.6468 43.251 33.1312 43.3682 32.6811 43.6026C32.2405 43.8276 31.8983 44.1464 31.6545 44.5589C31.4107 44.962 31.2888 45.4261 31.2888 45.9512C31.2888 46.3825 31.4014 46.7669 31.6264 47.1044C31.8514 47.4325 32.1889 47.6951 32.6389 47.892C33.089 48.0795 33.6422 48.1732 34.2985 48.1732C34.8047 48.1732 35.2923 48.1123 35.7611 47.9904C36.2299 47.8685 36.5814 47.7326 36.8158 47.5826L36.5064 49.2421C36.2814 49.3639 35.9345 49.4765 35.4657 49.5796C35.0063 49.6733 34.5188 49.7202 34.0031 49.7202ZM38.1749 49.5796L40.1298 39.4538H42.0987L41.4096 42.9978H41.494C41.6346 42.7916 41.8409 42.59 42.1128 42.3931C42.3846 42.1962 42.7081 42.0321 43.0831 41.9009C43.4582 41.7696 43.8566 41.704 44.2785 41.704C44.9723 41.704 45.5583 41.8165 46.0365 42.0415C46.524 42.2665 46.8897 42.5806 47.1335 42.9838C47.3772 43.3869 47.4991 43.8463 47.4991 44.362C47.4991 44.6526 47.4757 44.9105 47.4288 45.1355L46.5709 49.5796H44.602L45.4458 45.1636C45.474 45.0042 45.488 44.8589 45.488 44.7277C45.488 44.4183 45.413 44.151 45.263 43.926C45.113 43.701 44.8927 43.5276 44.602 43.4057C44.3207 43.2838 43.9738 43.2228 43.5613 43.2228C43.205 43.2228 42.8628 43.2885 42.5347 43.4197C42.2065 43.551 41.9205 43.7151 41.6768 43.912C41.4424 44.1089 41.2596 44.3104 41.1283 44.5167L40.1439 49.5796H38.1749ZM51.4465 49.7202C50.7245 49.7202 50.1245 49.6218 49.6463 49.4249C49.1775 49.228 48.8306 48.9655 48.6056 48.6373C48.39 48.3092 48.2822 47.9529 48.2822 47.5685C48.2822 46.8091 48.5775 46.1903 49.1682 45.7121C49.7588 45.2339 50.6214 44.9949 51.7559 44.9949H54.0482C54.4608 44.9949 54.7749 44.9667 54.9905 44.9105C55.2155 44.8448 55.3655 44.7652 55.4405 44.6714C55.5249 44.5683 55.5671 44.4464 55.5671 44.3057C55.5671 44.1464 55.4827 43.9963 55.314 43.8557C55.1452 43.7057 54.8592 43.5791 54.4561 43.476C54.0623 43.3729 53.5419 43.3213 52.895 43.3213C52.22 43.3213 51.559 43.3822 50.9121 43.5041C50.2651 43.626 49.7729 43.7666 49.4354 43.926L49.7729 42.2103C50.0729 42.079 50.5276 41.9618 51.1371 41.8587C51.7559 41.7555 52.4215 41.704 53.1341 41.704C54.1373 41.704 54.9624 41.8259 55.6093 42.0696C56.2656 42.304 56.7438 42.6181 57.0438 43.0119C57.3438 43.4057 57.4938 43.8463 57.4938 44.3339C57.4938 44.5401 57.4751 44.723 57.4376 44.8824L56.5234 49.5796H54.5545L54.7655 48.4545H54.7233C54.5264 48.6514 54.2592 48.8483 53.9217 49.0452C53.5935 49.2421 53.2138 49.4061 52.7825 49.5374C52.3512 49.6593 51.9059 49.7202 51.4465 49.7202ZM52.4169 48.1732C52.8013 48.1732 53.1622 48.1264 53.4998 48.0326C53.8467 47.9388 54.1467 47.8216 54.3998 47.681C54.653 47.5404 54.8499 47.3997 54.9905 47.2591L55.2718 45.7965C55.1968 45.8621 55.0186 45.9231 54.7373 45.9793C54.4655 46.0262 54.1186 46.0496 53.6966 46.0496H52.1496C51.559 46.0496 51.1183 46.1528 50.8277 46.359C50.5464 46.5653 50.4058 46.8231 50.4058 47.1325C50.4058 47.3107 50.4667 47.4794 50.5886 47.6388C50.7105 47.7888 50.9214 47.9154 51.2215 48.0185C51.5215 48.1217 51.9199 48.1732 52.4169 48.1732ZM58.1376 49.5796L60.0924 39.4538H62.0613L60.1065 49.5796H58.1376ZM61.7875 49.5796L63.7423 39.4538H65.7112L63.7564 49.5796H61.7875ZM70.8379 49.7202C69.769 49.7202 68.8643 49.5468 68.1236 49.1999C67.3923 48.8436 66.8485 48.3795 66.4922 47.8076C66.1359 47.2357 65.9578 46.6215 65.9578 45.9652C65.9578 45.1683 66.1547 44.4464 66.5485 43.7995C66.9516 43.1432 67.5048 42.6322 68.208 42.2665C68.9111 41.8915 69.7034 41.704 70.5847 41.704C71.4566 41.704 72.2161 41.8587 72.863 42.1681C73.5193 42.4681 74.0209 42.89 74.3678 43.4338C74.7147 43.9682 74.8882 44.5776 74.8882 45.2621C74.8882 45.5808 74.8553 45.8902 74.7897 46.1903H67.9408C68.0064 46.5559 68.1705 46.8841 68.433 47.1747C68.6955 47.456 69.0565 47.681 69.5159 47.8498C69.9847 48.0185 70.5331 48.1029 71.1613 48.1029C71.7051 48.1029 72.2208 48.0513 72.7083 47.9482C73.2052 47.8357 73.5803 47.7044 73.8334 47.5544L73.4959 49.2421C73.2615 49.3733 72.9005 49.4858 72.413 49.5796C71.9254 49.6733 71.4004 49.7202 70.8379 49.7202ZM72.9333 45.0652C72.9146 44.7277 72.8208 44.4183 72.6521 44.137C72.4833 43.8463 72.2348 43.6119 71.9067 43.4338C71.5785 43.2463 71.1707 43.1525 70.6832 43.1525C70.2987 43.1525 69.919 43.2322 69.544 43.3916C69.169 43.5416 68.8455 43.762 68.5736 44.0526C68.3017 44.3432 68.1283 44.6808 68.0533 45.0652H72.9333ZM75.5149 49.5796L77.0056 41.8446H78.9745L78.7495 42.9978H78.8339C78.9745 42.7916 79.1808 42.59 79.4527 42.3931C79.7246 42.1962 80.048 42.0321 80.4231 41.9009C80.7981 41.7696 81.1966 41.704 81.6185 41.704C82.3123 41.704 82.8983 41.8165 83.3764 42.0415C83.864 42.2665 84.2296 42.5806 84.4734 42.9838C84.7171 43.3869 84.839 43.8463 84.839 44.362C84.839 44.6526 84.8156 44.9105 84.7687 45.1355L83.9108 49.5796H81.9419L82.7857 45.1636C82.8139 45.0042 82.8279 44.8589 82.8279 44.7277C82.8279 44.4183 82.7529 44.151 82.6029 43.926C82.4529 43.701 82.2326 43.5276 81.9419 43.4057C81.6607 43.2838 81.3138 43.2228 80.9012 43.2228C80.5449 43.2228 80.2027 43.2885 79.8746 43.4197C79.5464 43.551 79.2605 43.7151 79.0167 43.912C78.7823 44.1089 78.5995 44.3104 78.4682 44.5167L77.4838 49.5796H75.5149ZM89.9818 52.3923C89.138 52.3923 88.341 52.2798 87.591 52.0548C86.8503 51.8298 86.2596 51.586 85.819 51.3235L86.1565 49.5937C86.5409 49.8843 87.0659 50.1515 87.7316 50.3953C88.4067 50.6484 89.1239 50.775 89.8834 50.775C90.4459 50.775 90.9287 50.6859 91.3319 50.5078C91.7351 50.3296 92.0585 50.0765 92.3023 49.7484C92.5461 49.4296 92.7195 49.0452 92.8226 48.5951L92.9211 48.1592H92.8367C92.6023 48.4311 92.2179 48.6795 91.6835 48.9045C91.1491 49.1202 90.5397 49.228 89.8552 49.228C89.0958 49.228 88.4254 49.078 87.8441 48.778C87.2722 48.4686 86.8316 48.056 86.5222 47.5404C86.2128 47.0153 86.0581 46.434 86.0581 45.7965C86.0581 45.0183 86.2549 44.3198 86.6487 43.701C87.0425 43.0822 87.5863 42.5947 88.2801 42.2384C88.9833 41.8821 89.7755 41.704 90.6568 41.704C91.1444 41.704 91.5991 41.7696 92.021 41.9009C92.4429 42.0321 92.8086 42.1962 93.118 42.3931C93.4274 42.59 93.6665 42.7916 93.8352 42.9978H93.9196L94.1446 41.8446H96.1135L94.7775 48.778C94.6368 49.5186 94.3649 50.1562 93.9618 50.6906C93.5586 51.2344 93.0242 51.6516 92.3585 51.9423C91.6929 52.2423 90.9006 52.3923 89.9818 52.3923ZM90.5865 47.681C90.9897 47.681 91.3647 47.6341 91.7116 47.5404C92.0585 47.4466 92.3585 47.3294 92.6117 47.1888C92.8648 47.0481 93.057 46.9075 93.1883 46.7669L93.6383 44.4604C93.5164 44.2729 93.3242 44.0854 93.0617 43.8979C92.7992 43.7104 92.4757 43.5557 92.0913 43.4338C91.7069 43.3119 91.285 43.251 90.8256 43.251C90.2631 43.251 89.7755 43.3541 89.363 43.5604C88.9598 43.7573 88.6458 44.0432 88.4207 44.4183C88.2051 44.7839 88.0973 45.2105 88.0973 45.698C88.0973 46.0543 88.1863 46.3872 88.3645 46.6966C88.552 46.9966 88.8333 47.2357 89.2083 47.4138C89.5833 47.5919 90.0427 47.681 90.5865 47.681ZM101.716 49.7202C100.647 49.7202 99.7421 49.5468 99.0014 49.1999C98.2701 48.8436 97.7263 48.3795 97.37 47.8076C97.0137 47.2357 96.8356 46.6215 96.8356 45.9652C96.8356 45.1683 97.0325 44.4464 97.4263 43.7995C97.8294 43.1432 98.3826 42.6322 99.0858 42.2665C99.789 41.8915 100.581 41.704 101.463 41.704C102.334 41.704 103.094 41.8587 103.741 42.1681C104.397 42.4681 104.899 42.89 105.246 43.4338C105.593 43.9682 105.766 44.5776 105.766 45.2621C105.766 45.5808 105.733 45.8902 105.668 46.1903H98.8186C98.8842 46.5559 99.0483 46.8841 99.3108 47.1747C99.5733 47.456 99.9343 47.681 100.394 47.8498C100.862 48.0185 101.411 48.1029 102.039 48.1029C102.583 48.1029 103.099 48.0513 103.586 47.9482C104.083 47.8357 104.458 47.7044 104.711 47.5544L104.374 49.2421C104.139 49.3733 103.778 49.4858 103.291 49.5796C102.803 49.6733 102.278 49.7202 101.716 49.7202ZM103.811 45.0652C103.792 44.7277 103.699 44.4183 103.53 44.137C103.361 43.8463 103.113 43.6119 102.784 43.4338C102.456 43.2463 102.049 43.1525 101.561 43.1525C101.177 43.1525 100.797 43.2322 100.422 43.3916C100.047 43.5416 99.7233 43.762 99.4514 44.0526C99.1795 44.3432 99.0061 44.6808 98.9311 45.0652H103.811Z" fill="#102B32"/>
</svg>
