<svg width="60" height="55" viewBox="0 0 60 55" fill="none" xmlns="http://www.w3.org/2000/svg">
<ellipse cx="28.4731" cy="7.46032" rx="4.58249" ry="4.55554" fill="#F99D12"/>
<ellipse cx="4.58249" cy="31.2098" rx="4.58249" ry="4.55554" fill="#F99D12"/>
<ellipse cx="52.3637" cy="31.2098" rx="4.58249" ry="4.55554" fill="#F99D12"/>
<path d="M15.9029 45.5725C23.0438 38.4819 34.6217 38.4819 41.7626 45.5725L47.2898 51.0606C47.6204 51.3889 48.1564 51.3889 48.487 51.0606L49.0856 50.4662C49.4162 50.138 49.4162 49.6057 49.0856 49.2775L43.5585 43.7893C36.4175 36.6987 36.4175 25.2026 43.5585 18.112L59.7511 2.02935C60.0817 1.70108 60.0817 1.16885 59.7511 0.840585L59.1525 0.246201C58.8219 -0.0820677 58.2859 -0.0820668 57.9553 0.246202L41.7626 16.3288C34.6217 23.4194 23.0438 23.4194 15.9029 16.3288L10.3757 10.8407C10.0451 10.5124 9.50913 10.5124 9.17852 10.8407L8.57992 11.4351C8.24932 11.7633 8.24932 12.2956 8.57992 12.6238L14.107 18.112C21.248 25.2026 21.248 36.6987 14.107 43.7893L5.31826 52.5161C4.98766 52.8444 4.98766 53.3766 5.31826 53.7049L5.91687 54.2993C6.24747 54.6275 6.78348 54.6275 7.11408 54.2993L15.9029 45.5725Z" fill="#F99D12"/>
</svg>
