<svg width="16" height="16" viewBox="0 0 16 16" fill="none" xmlns="http://www.w3.org/2000/svg">
<path d="M3.06416 4.6401C3.06416 2.9633 4.42458 1.6001 6.09795 1.6001C7.77133 1.6001 9.13174 2.9633 9.13174 4.6401C9.12536 6.2849 7.84158 7.6161 6.20653 7.6737H6.16182C6.1235 7.6673 6.0724 7.6673 6.02131 7.6737C4.34793 7.6161 3.06416 6.2849 3.06416 4.6401Z" fill="white"/>
<path d="M2.85979 9.3761C4.65451 8.18569 7.56056 8.18569 9.34252 9.3761C10.1473 9.9137 10.588 10.6433 10.5944 11.4305C10.5944 12.2241 10.1473 12.9537 9.34252 13.4977C8.44835 14.0993 7.27315 14.4001 6.09796 14.4001C4.92276 14.4001 3.74757 14.0993 2.8534 13.4977C2.04865 12.9601 1.60156 12.2305 1.60156 11.4433C1.60156 10.6561 2.04865 9.9201 2.85979 9.3761Z" fill="white"/>
<path d="M13.1172 5.01769C13.2194 6.25929 12.338 7.34729 11.1181 7.49449H11.0861C11.0478 7.49449 11.0095 7.49449 10.9776 7.50729C10.358 7.53929 9.7896 7.34089 9.36168 6.97609C10.0195 6.38729 10.3964 5.50409 10.3197 4.54409C10.275 4.02569 10.0962 3.55209 9.82792 3.14889C10.0706 3.02729 10.3517 2.95049 10.6391 2.92489C11.8909 2.81609 13.0086 3.75049 13.1172 5.01769Z" fill="white"/>
<path d="M13.2833 12.4609C13.9475 12.0961 14.3435 11.5585 14.3946 10.9377C14.4521 10.3233 14.1519 9.7281 13.5643 9.2545C12.4721 8.37129 10.6966 8.09609 9.28505 8.50569C9.82794 8.70409 10.3261 8.9729 10.754 9.3121C11.5077 9.9201 11.8845 10.6817 11.8207 11.4753C11.7696 12.0257 11.5013 12.5441 11.0415 12.9601C11.8398 12.9793 12.6446 12.8129 13.2833 12.4609Z" fill="white"/>
</svg>
