<svg width="41" height="40" viewBox="0 0 41 40" fill="none" xmlns="http://www.w3.org/2000/svg">
<path d="M33.9987 15.3667C30.982 15.3667 29.7487 13.2334 31.2487 10.6167C32.1154 9.10006 31.5987 7.16672 30.082 6.30006L27.1987 4.65006C25.882 3.86672 24.182 4.33339 23.3987 5.65006L23.2154 5.96672C21.7154 8.58339 19.2487 8.58339 17.732 5.96672L17.5487 5.65006C16.7987 4.33339 15.0987 3.86672 13.782 4.65006L10.8987 6.30006C9.38203 7.16672 8.86537 9.11672 9.73203 10.6334C11.2487 13.2334 10.0154 15.3667 6.9987 15.3667C5.26536 15.3667 3.83203 16.7834 3.83203 18.5334V21.4667C3.83203 23.2001 5.2487 24.6334 6.9987 24.6334C10.0154 24.6334 11.2487 26.7667 9.73203 29.3834C8.86537 30.9001 9.38203 32.8334 10.8987 33.7001L13.782 35.3501C15.0987 36.1334 16.7987 35.6667 17.582 34.3501L17.7654 34.0334C19.2654 31.4167 21.732 31.4167 23.2487 34.0334L23.432 34.3501C24.2154 35.6667 25.9154 36.1334 27.232 35.3501L30.1154 33.7001C31.632 32.8334 32.1487 30.8834 31.282 29.3834C29.7654 26.7667 30.9987 24.6334 34.0154 24.6334C35.7487 24.6334 37.182 23.2167 37.182 21.4667V18.5334C37.1654 16.8001 35.7487 15.3667 33.9987 15.3667ZM20.4987 25.4167C17.5154 25.4167 15.082 22.9834 15.082 20.0001C15.082 17.0167 17.5154 14.5834 20.4987 14.5834C23.482 14.5834 25.9154 17.0167 25.9154 20.0001C25.9154 22.9834 23.482 25.4167 20.4987 25.4167Z" fill="#102B32"/>
</svg>
