<svg width="24" height="24" viewBox="0 0 24 24" fill="none" xmlns="http://www.w3.org/2000/svg">
<path fill-rule="evenodd" clip-rule="evenodd" d="M21.5411 6.95674C21.6801 6.50137 21.5411 6.16675 20.8794 6.16675H18.6914C18.1351 6.16675 17.8786 6.45581 17.7395 6.77455C17.7395 6.77455 16.6268 9.43848 15.0505 11.1688C14.5406 11.6698 14.3088 11.8292 14.0306 11.8292C13.8915 11.8292 13.6828 11.6698 13.6828 11.2144V6.95674C13.6828 6.41029 13.5288 6.16675 13.0651 6.16675H9.62678C9.27912 6.16675 9.07003 6.42037 9.07003 6.66073C9.07003 7.17876 9.85813 7.29822 9.93936 8.75543V11.9203C9.93936 12.6141 9.81178 12.7399 9.53361 12.7399C8.79187 12.7399 6.98756 10.0641 5.91745 7.00226C5.70773 6.40714 5.49739 6.16675 4.93819 6.16675H2.75018C2.12504 6.16675 2 6.45581 2 6.77455C2 7.34378 2.74178 10.1671 5.45387 13.9011C7.26191 16.4511 9.80933 17.8334 12.1273 17.8334C13.5182 17.8334 13.6903 17.5264 13.6903 16.9976V15.0703C13.6903 14.4563 13.822 14.3337 14.2624 14.3337C14.5869 14.3337 15.1433 14.4931 16.4413 15.7226C17.9249 17.1798 18.1695 17.8334 19.0039 17.8334H21.192C21.8171 17.8334 22.1297 17.5264 21.9494 16.9205C21.752 16.3167 21.0438 15.4406 20.1039 14.402C19.5939 13.81 18.8289 13.1725 18.5971 12.8537C18.2726 12.4439 18.3654 12.2618 18.5971 11.8975C18.5971 11.8975 21.2629 8.20898 21.5411 6.95674Z" fill="#102B32"/>
</svg>
