<svg width="24" height="24" viewBox="0 0 24 24" fill="none" xmlns="http://www.w3.org/2000/svg">
<path d="M9.2 16.8L11.05 14.95C11.45 14.55 11.44 13.91 11.04 13.52C10.99 13.47 10.9375 13.42 10.885 13.37C10.8325 13.32 10.78 13.27 10.73 13.22C10.21 12.69 9.73 12.16 9.28 11.64C8.84 11.12 8.53 10.69 8.35 10.36C8.33917 10.3275 8.32541 10.295 8.31031 10.2594C8.29752 10.2292 8.28376 10.1967 8.27 10.16C8.25 10.08 8.24 10.01 8.24 9.93C8.24 9.77 8.29 9.64 8.4 9.53L9.16 8.74C9.4 8.5 9.59 8.26 9.72 8.03C9.86 7.8 9.93 7.56 9.93 7.32C9.93 7.13 9.88 6.92 9.79 6.71C9.7 6.49 9.57 6.26 9.39 6.01L7.07 2.74C6.89 2.48 6.66 2.3 6.4 2.18C6.15 2.06 5.87 2 5.59 2C4.85 2 4.15 2.31 3.51 2.94C2.98 3.44 2.6 4 2.36 4.61C2.12 5.21 2 5.86 2 6.54C2 7.58 2.24 8.67 2.71 9.81C3.19 10.94 3.85 12.08 4.67 13.22C5.5 14.36 6.43 15.45 7.46 16.49C7.515 16.545 7.57 16.5975 7.625 16.65C7.68 16.7025 7.735 16.755 7.79 16.81C8.19 17.19 8.81 17.19 9.2 16.8Z" fill="#102B32"/>
<path d="M21.82 19.18C21.92 18.9 21.97 18.61 21.97 18.33C21.97 18.05 21.91 17.8 21.81 17.55C21.7 17.3 21.52 17.09 21.26 16.91L17.95 14.56C17.7 14.39 17.47 14.26 17.25 14.17C17.03 14.08 16.83 14.04 16.64 14.04C16.39 14.04 16.16 14.11 15.93 14.25C15.7 14.37 15.46 14.56 15.21 14.81L14.45 15.56C14.34 15.67 14.21 15.73 14.04 15.73C13.95 15.73 13.87 15.72 13.79 15.69C13.7579 15.6763 13.7279 15.6625 13.7 15.6497C13.667 15.6346 13.637 15.6209 13.61 15.61C13.4 15.5 13.15 15.34 12.87 15.13L9.59998 18.4C9.96998 18.71 10.36 19 10.75 19.29C11.89 20.12 13.04 20.78 14.19 21.27C15.34 21.76 16.43 22 17.45 22C18.14 22 18.78 21.87 19.37 21.63C19.375 21.63 19.38 21.6275 19.385 21.625C19.39 21.6225 19.395 21.62 19.4 21.62C20.01 21.37 20.55 20.98 21.04 20.44C21.33 20.12 21.55 19.78 21.72 19.42C21.76 19.34 21.79 19.26 21.82 19.18Z" fill="#102B32"/>
</svg>
