<svg width="40" height="40" viewBox="0 0 40 40" fill="none" xmlns="http://www.w3.org/2000/svg">
<circle cx="28.5" cy="13.5" r="2.5" fill="#102B32" fill-opacity="0.6"/>
<path fill-rule="evenodd" clip-rule="evenodd" d="M25.4261 17.5682H31.3718C34.0656 17.5682 34.8161 19.2021 33.0266 21.1969L18.4607 37.5545C16.3248 39.9483 14.5739 39.3023 14.5739 36.1106V22.4318H8.6282C5.93437 22.4318 5.18394 20.7979 6.97341 18.8031L21.5393 2.44553C23.6752 0.0517434 25.4261 0.697687 25.4261 3.88941V17.5682ZM19.9999 22.5057C21.4019 22.5057 22.5385 21.3835 22.5385 19.9992C22.5385 18.6149 21.4019 17.4927 19.9999 17.4927C18.5979 17.4927 17.4613 18.6149 17.4613 19.9992C17.4613 21.3835 18.5979 22.5057 19.9999 22.5057Z" fill="#102B32" fill-opacity="0.6"/>
<circle cx="11.5" cy="26.5" r="2.5" fill="#102B32" fill-opacity="0.6"/>
</svg>
