<svg width="40" height="40" viewBox="0 0 40 40" fill="none" xmlns="http://www.w3.org/2000/svg">
<path d="M27.8424 32.228C23.0817 27.473 15.3632 27.473 10.6025 32.228L4.74335 38.0803C4.52295 38.3004 4.16561 38.3004 3.94521 38.0803L3.54614 37.6817C3.32574 37.4615 3.32574 37.1046 3.54614 36.8845L9.40533 31.0322C14.166 26.2772 14.166 18.5677 9.40533 13.8127L5.72058 10.1323C5.50018 9.91215 5.50018 9.55523 5.72058 9.33509L6.11965 8.93649C6.34005 8.71635 6.69739 8.71635 6.91779 8.93649L10.6025 12.6169C15.3632 17.3719 23.0817 17.3719 27.8424 12.6169L38.6375 1.83173C38.8579 1.61159 39.2152 1.61159 39.4356 1.83173L39.8347 2.23033C40.0551 2.45047 40.0551 2.80739 39.8347 3.02753L29.0396 13.8127C24.279 18.5677 24.279 26.2772 29.0396 31.0322L32.7244 34.7126C32.9448 34.9327 32.9448 35.2897 32.7244 35.5098L32.3253 35.9084C32.1049 36.1285 31.7475 36.1285 31.5271 35.9084L27.8424 32.228Z" fill="#102B32" fill-opacity="0.6"/>
<path d="M18.9817 9.72444C20.6689 9.72444 22.0367 8.35668 22.0367 6.66945C22.0367 4.98223 20.6689 3.61446 18.9817 3.61446C17.2945 3.61446 15.9267 4.98223 15.9267 6.66945C15.9267 8.35668 17.2945 9.72444 18.9817 9.72444Z" fill="#102B32" fill-opacity="0.6"/>
<path d="M3.05499 25.6514C4.74222 25.6514 6.10998 24.2836 6.10998 22.5964C6.10998 20.9091 4.74222 19.5414 3.05499 19.5414C1.36777 19.5414 0 20.9091 0 22.5964C0 24.2836 1.36777 25.6514 3.05499 25.6514Z" fill="#102B32" fill-opacity="0.6"/>
<path d="M37.9633 22.5964C37.9633 24.2836 36.5955 25.6514 34.9083 25.6514C33.2211 25.6514 31.8533 24.2836 31.8533 22.5964C31.8533 20.9091 33.2211 19.5414 34.9083 19.5414C36.5955 19.5414 37.9633 20.9091 37.9633 22.5964Z" fill="#102B32" fill-opacity="0.6"/>
</svg>
