<svg width="40" height="40" viewBox="0 0 40 40" fill="none" xmlns="http://www.w3.org/2000/svg">
<path d="M19.7131 26.3003V26.9348C18.6201 27.1319 17.7026 27.8229 17.2307 28.7825C16.9848 29.2674 16.8443 29.7869 16.8443 30.3411C16.8443 30.8953 16.9848 31.4148 17.2307 31.8997C17.7026 32.8593 18.6201 33.5503 19.7131 33.7474V34.3819H20.8607V33.7743C21.5917 33.6842 22.2159 33.3983 22.6756 32.9734C23.3431 32.3846 23.7295 31.4841 23.7295 30.4104C23.7295 30.1685 23.7027 30.0146 23.6726 29.8411L23.6723 29.8396C23.668 29.8149 23.6636 29.7897 23.6593 29.7638H20.3571V30.9992H22.2892C22.2541 31.3109 22.0433 31.7958 21.5867 32.1075C21.3056 32.3153 20.8841 32.4539 20.3571 32.4539C19.4438 32.4539 18.6358 31.8651 18.3548 30.9992C18.2845 30.7913 18.2494 30.5489 18.2494 30.3065C18.2494 30.064 18.2845 29.8216 18.3548 29.6137C18.3702 29.5834 18.3789 29.553 18.3867 29.5255C18.3967 29.4904 18.4053 29.46 18.4251 29.4406C18.7412 28.7132 19.4789 28.1937 20.3571 28.1937C21.0246 28.1937 21.4461 28.4708 21.7272 28.7132L22.7108 27.7434C22.2223 27.3184 21.5928 27.0093 20.8607 26.9109V26.3003H19.7131Z" fill="#102B32" fill-opacity="0.6"/>
<path fill-rule="evenodd" clip-rule="evenodd" d="M4.79508 22.5481C4.79508 21.9104 5.30885 21.3935 5.94262 21.3935H34.0574C34.6911 21.3935 35.2049 21.9104 35.2049 22.5481V37.8455C35.2049 38.4831 34.6911 39 34.0574 39H5.94262C5.30885 39 4.79508 38.4831 4.79508 37.8455V22.5481ZM25.4508 30.3411C25.4508 33.2104 23.1388 35.5364 20.2869 35.5364C17.4349 35.5364 15.123 33.2104 15.123 30.3411C15.123 27.4718 17.4349 25.1457 20.2869 25.1457C23.1388 25.1457 25.4508 27.4718 25.4508 30.3411Z" fill="#102B32" fill-opacity="0.6"/>
<path fill-rule="evenodd" clip-rule="evenodd" d="M2.5 13.0233C2.5 11.748 3.52754 10.7142 4.79508 10.7142H35.2049C36.4725 10.7142 37.5 11.748 37.5 13.0233V18.2186C37.5 19.4939 36.4725 20.5277 35.2049 20.5277H4.79508C3.52754 20.5277 2.5 19.4939 2.5 18.2186V13.0233ZM15.6967 15.6209C15.6967 16.418 15.0545 17.0641 14.2623 17.0641C13.4701 17.0641 12.8279 16.418 12.8279 15.6209C12.8279 14.8239 13.4701 14.1778 14.2623 14.1778C15.0545 14.1778 15.6967 14.8239 15.6967 15.6209ZM25.7377 17.0641C26.5299 17.0641 27.1721 16.418 27.1721 15.6209C27.1721 14.8239 26.5299 14.1778 25.7377 14.1778C24.9455 14.1778 24.3033 14.8239 24.3033 15.6209C24.3033 16.418 24.9455 17.0641 25.7377 17.0641Z" fill="#102B32" fill-opacity="0.6"/>
<path fill-rule="evenodd" clip-rule="evenodd" d="M9.48372 4.26548L11.1931 5.98525C15.8986 10.7194 23.5277 10.7194 28.2332 5.98525L29.9426 4.26548L26.6968 1L24.9875 2.71977C22.0745 5.65041 17.3518 5.65041 14.4388 2.71977L12.7295 1L9.48372 4.26548ZM20 8.40517C20.7922 8.40517 21.4344 7.75905 21.4344 6.96202C21.4344 6.16499 20.7922 5.51887 20 5.51887C19.2078 5.51887 18.5656 6.16499 18.5656 6.96202C18.5656 7.75905 19.2078 8.40517 20 8.40517Z" fill="#102B32" fill-opacity="0.6"/>
</svg>
