<svg width="24" height="24" viewBox="0 0 24 24" fill="none" xmlns="http://www.w3.org/2000/svg">
<path d="M22 7V5C22 3 21 2 19 2H5C3 2 2 3 2 5V7C2 8.83 2.83 9.82 4.5 9.97C4.66 9.99 4.83 10 5 10H19C19.17 10 19.34 9.99 19.5 9.97C21.17 9.82 22 8.83 22 7Z" fill="#102B32"/>
<path fill-rule="evenodd" clip-rule="evenodd" d="M4.5 12.25C4.5 11.7 4.95 11.25 5.5 11.25H18.5C19.05 11.25 19.5 11.7 19.5 12.25V19C19.5 21 19 22 16.5 22H7.5C5 22 4.5 21 4.5 19V12.25ZM10.18 15.75H13.82C14.23 15.75 14.57 15.41 14.57 15C14.57 14.59 14.23 14.25 13.82 14.25H10.18C9.77 14.25 9.43 14.59 9.43 15C9.43 15.41 9.77 15.75 10.18 15.75Z" fill="#102B32"/>
</svg>
