<svg width="24" height="24" viewBox="0 0 24 24" fill="none" xmlns="http://www.w3.org/2000/svg">
<path d="M19.59 5.85L13.65 2.42C12.68 1.86 11.48 1.86 10.5 2.42L4.57 5.85C3.6 6.41 3 7.45 3 8.58V15.42C3 16.54 3.6 17.58 4.57 18.15L10.51 21.58C11.48 22.14 12.68 22.14 13.66 21.58L19.6 18.15C20.57 17.59 21.17 16.55 21.17 15.42V8.58C21.16 7.45 20.56 6.42 19.59 5.85ZM12.08 7.34C13.37 7.34 14.41 8.38 14.41 9.67C14.41 10.96 13.37 12 12.08 12C10.79 12 9.75 10.96 9.75 9.67C9.75 8.39 10.79 7.34 12.08 7.34ZM14.76 16.66H9.4C8.59 16.66 8.12 15.76 8.57 15.09C9.25 14.08 10.57 13.4 12.08 13.4C13.59 13.4 14.91 14.08 15.59 15.09C16.04 15.75 15.56 16.66 14.76 16.66Z" fill="#102B32"/>
</svg>
