<svg width="24" height="25" viewBox="0 0 24 25" fill="none" xmlns="http://www.w3.org/2000/svg">
<path d="M13.15 15.87C12.93 15.55 12.54 15.37 12.09 15.37H9.76C9.61 15.37 9.46 15.31 9.37 15.19C9.27 15.07 9.23 14.92 9.25 14.75L9.54 12.89C9.66 12.34 9.29 11.71 8.74 11.52C8.22 11.33 7.62 11.59 7.37 11.96L5.06 15.4V14.97C5.06 14.13 4.7 13.79 3.82 13.79H3.24C2.36 13.8 2 14.14 2 14.98V20.69C2 21.53 2.36 21.87 3.24 21.87H3.82C4.66 21.87 5.01 21.54 5.04 20.78L6.79 22.13C7.04 22.37 7.57 22.5 7.95 22.5H10.16C10.92 22.5 11.68 21.93 11.86 21.23L13.26 16.98C13.41 16.57 13.37 16.18 13.15 15.87Z" fill="#102B32"/>
<path d="M21.11 3.10998H20.53C19.69 3.10998 19.34 3.43998 19.3 4.19998L17.55 2.84998C17.31 2.60998 16.77 2.47998 16.39 2.47998H14.18C13.42 2.47998 12.66 3.04998 12.48 3.74998L11.08 7.99998C10.93 8.40998 10.98 8.79998 11.19 9.10998C11.41 9.42998 11.8 9.60998 12.25 9.60998H14.58C14.73 9.60998 14.88 9.66998 14.97 9.78998C15.07 9.90998 15.11 10.06 15.09 10.23L14.8 12.09C14.68 12.64 15.05 13.27 15.6 13.46C16.12 13.65 16.72 13.39 16.97 13.02L19.28 9.57998V10.01C19.28 10.85 19.64 11.19 20.52 11.19H21.1C21.98 11.19 22.34 10.85 22.34 10.01V4.27998C22.35 3.44998 21.99 3.10998 21.11 3.10998Z" fill="#102B32"/>
</svg>
