<svg width="24" height="25" viewBox="0 0 24 25" fill="none" xmlns="http://www.w3.org/2000/svg">
<path d="M9.11014 3.95H14.8901C15.2901 3.95 15.6101 3.62 15.6101 3.22C15.6101 2.82 15.2901 2.5 14.8901 2.5H9.11014C8.71014 2.5 8.39014 2.83 8.39014 3.23C8.39014 3.63 8.71014 3.95 9.11014 3.95Z" fill="#102B32"/>
<path fill-rule="evenodd" clip-rule="evenodd" d="M3.33008 13.82C3.33008 9.04002 7.22008 5.15002 12.0001 5.15002C16.7801 5.15002 20.6701 9.05002 20.6701 13.83C20.6701 18.61 16.7801 22.5 12.0001 22.5C7.22008 22.5 3.33008 18.6 3.33008 13.82ZM12.0001 14.25C12.4101 14.25 12.7501 13.91 12.7501 13.5V8.50002C12.7501 8.09002 12.4101 7.75002 12.0001 7.75002C11.5901 7.75002 11.2501 8.09002 11.2501 8.50002V13.5C11.2501 13.91 11.5901 14.25 12.0001 14.25Z" fill="#102B32"/>
</svg>
