<svg width="16" height="16" viewBox="0 0 16 16" fill="none" xmlns="http://www.w3.org/2000/svg">
<path fill-rule="evenodd" clip-rule="evenodd" d="M1.33203 8C1.33203 4.32667 4.32536 1.33333 7.9987 1.33333C11.672 1.33333 14.6654 4.32667 14.6654 8C14.6654 11.6733 11.672 14.6667 7.9987 14.6667C4.32536 14.6667 1.33203 11.6733 1.33203 8ZM7.19943 9V9.11648H8.40965V9C8.40965 8.83144 8.43333 8.68939 8.48068 8.57386C8.52802 8.45644 8.5981 8.35227 8.6909 8.26136C8.7856 8.17045 8.90397 8.08333 9.04602 8C9.22784 7.89204 9.38598 7.77273 9.52045 7.64204C9.65681 7.50947 9.76287 7.35701 9.83863 7.18466C9.91439 7.01231 9.95227 6.81345 9.95227 6.58807C9.95227 6.24526 9.86515 5.95549 9.6909 5.71875C9.51666 5.48201 9.27708 5.30303 8.97215 5.18182C8.66912 5.0606 8.32253 5 7.93238 5C7.57632 5 7.25056 5.06155 6.95511 5.18466C6.65965 5.30587 6.42196 5.49337 6.24204 5.74716C6.06401 6.00095 5.97215 6.3267 5.96647 6.72443H7.27329C7.27518 6.59186 7.30643 6.47917 7.36704 6.38636C7.42954 6.29167 7.50909 6.21875 7.60568 6.16761C7.70416 6.11648 7.80927 6.09091 7.92102 6.09091C8.03276 6.09091 8.13409 6.11458 8.22499 6.16193C8.3178 6.20739 8.39071 6.27273 8.44374 6.35795C8.49677 6.44318 8.52329 6.54167 8.52329 6.65341C8.52329 6.76894 8.49583 6.87216 8.4409 6.96307C8.38598 7.05398 8.31117 7.1392 8.21647 7.21875C8.12367 7.2964 8.01761 7.37311 7.89829 7.44886C7.74867 7.54545 7.62177 7.65246 7.51761 7.76989C7.41344 7.88542 7.3339 8.03882 7.27897 8.23011C7.22594 8.4214 7.19943 8.67803 7.19943 9ZM7.3017 10.7642C7.44753 10.9081 7.62272 10.9801 7.82727 10.9801C7.95795 10.9801 8.07821 10.947 8.18806 10.8807C8.2998 10.8144 8.38977 10.7254 8.45795 10.6136C8.52802 10.5019 8.56401 10.3778 8.5659 10.2415C8.56401 10.0407 8.4892 9.86932 8.34147 9.72727C8.19374 9.58333 8.02234 9.51136 7.82727 9.51136C7.62272 9.51136 7.44753 9.58333 7.3017 9.72727C7.15776 9.86932 7.08674 10.0407 7.08863 10.2415C7.08674 10.446 7.15776 10.6203 7.3017 10.7642Z" fill="#1E8CAF"/>
</svg>
