<svg width="24" height="25" viewBox="0 0 24 25" fill="none" xmlns="http://www.w3.org/2000/svg">
<path fill-rule="evenodd" clip-rule="evenodd" d="M12 21.5C16.9706 21.5 21 17.4706 21 12.5C21 7.52944 16.9706 3.5 12 3.5C7.02944 3.5 3 7.52944 3 12.5C3 17.4706 7.02944 21.5 12 21.5ZM11 6.59923V5.5H13V6.55782C14.2759 6.72835 15.3731 7.26381 16.2245 8L14.5102 9.68C14.0204 9.26 13.2857 8.78 12.1224 8.78C10.5918 8.78 9.30612 9.68 8.7551 10.94C8.72072 10.9737 8.70565 11.0263 8.6882 11.0872C8.67457 11.1348 8.6595 11.1874 8.63265 11.24C8.5102 11.6 8.44898 12.02 8.44898 12.44C8.44898 12.86 8.5102 13.28 8.63265 13.64C9.12245 15.14 10.5306 16.16 12.1224 16.16C13.0408 16.16 13.7755 15.92 14.2653 15.56C15.0612 15.02 15.4286 14.18 15.4898 13.64H12.1224V11.5H17.8776C17.8853 11.5457 17.8931 11.5902 17.9008 11.6339C17.9533 11.9343 18 12.201 18 12.62C18 14.48 17.3265 16.04 16.1633 17.06C15.362 17.7961 14.2741 18.2914 13 18.4474V19.5H11V18.4008C9.09505 18.0594 7.49588 16.8623 6.67347 15.2C6.2449 14.36 6 13.46 6 12.5C6 11.54 6.2449 10.64 6.67347 9.8C7.49588 8.1377 9.09505 6.94059 11 6.59923Z" fill="#F99D12"/>
</svg>
